<svg width="271" height="44" viewBox="0 0 271 44" fill="none" xmlns="http://www.w3.org/2000/svg">
<path d="M21.28 7.48C22.6667 7.48 23.9333 7.77333 25.08 8.36C26.2533 8.92 27.1733 9.72 27.84 10.76C28.5333 11.8 28.88 12.96 28.88 14.24C28.88 17.6267 27.3467 19.76 24.28 20.64V20.8C27.7733 21.6 29.52 23.8933 29.52 27.68C29.52 29.12 29.16 30.4 28.44 31.52C27.7467 32.6133 26.7867 33.4667 25.56 34.08C24.3333 34.6933 22.9867 35 21.52 35H2.96V7.48H21.28ZM11.8 18.2H17.88C18.4667 18.2 18.9467 18 19.32 17.6C19.72 17.1733 19.92 16.6533 19.92 16.04V15.64C19.92 15.0533 19.72 14.56 19.32 14.16C18.92 13.7333 18.44 13.52 17.88 13.52H11.8V18.2ZM11.8 28.6H18.52C19.1067 28.6 19.5867 28.4 19.96 28C20.36 27.5733 20.56 27.0533 20.56 26.44V26.04C20.56 25.4267 20.36 24.92 19.96 24.52C19.5867 24.0933 19.1067 23.88 18.52 23.88H11.8V28.6ZM47.7728 7C52.5195 7 56.1861 8.21333 58.7728 10.64C61.3595 13.0667 62.6528 16.6 62.6528 21.24C62.6528 25.88 61.3595 29.4133 58.7728 31.84C56.1861 34.2667 52.5195 35.48 47.7728 35.48C43.0261 35.48 39.3595 34.28 36.7728 31.88C34.2128 29.4533 32.9328 25.9067 32.9328 21.24C32.9328 16.5733 34.2128 13.04 36.7728 10.64C39.3595 8.21333 43.0261 7 47.7728 7ZM47.7728 13.6C45.8795 13.6 44.4395 14.1733 43.4528 15.32C42.4661 16.4667 41.9728 18.0133 41.9728 19.96V22.52C41.9728 24.4667 42.4661 26.0133 43.4528 27.16C44.4395 28.3067 45.8795 28.88 47.7728 28.88C49.6661 28.88 51.1061 28.3067 52.0928 27.16C53.1061 26.0133 53.6128 24.4667 53.6128 22.52V19.96C53.6128 18.0133 53.1061 16.4667 52.0928 15.32C51.1061 14.1733 49.6661 13.6 47.7728 13.6ZM85.7331 7.48C87.1198 7.48 88.3865 7.77333 89.5331 8.36C90.7065 8.92 91.6265 9.72 92.2931 10.76C92.9865 11.8 93.3331 12.96 93.3331 14.24C93.3331 17.6267 91.7998 19.76 88.7331 20.64V20.8C92.2265 21.6 93.9731 23.8933 93.9731 27.68C93.9731 29.12 93.6131 30.4 92.8931 31.52C92.1998 32.6133 91.2398 33.4667 90.0131 34.08C88.7865 34.6933 87.4398 35 85.9731 35H67.4131V7.48H85.7331ZM76.2531 18.2H82.3331C82.9198 18.2 83.3998 18 83.7731 17.6C84.1731 17.1733 84.3731 16.6533 84.3731 16.04V15.64C84.3731 15.0533 84.1731 14.56 83.7731 14.16C83.3731 13.7333 82.8931 13.52 82.3331 13.52H76.2531V18.2ZM76.2531 28.6H82.9731C83.5598 28.6 84.0398 28.4 84.4131 28C84.8131 27.5733 85.0131 27.0533 85.0131 26.44V26.04C85.0131 25.4267 84.8131 24.92 84.4131 24.52C84.0398 24.0933 83.5598 23.88 82.9731 23.88H76.2531V28.6ZM124.891 23.92C124.891 27.68 123.705 30.5467 121.331 32.52C118.958 34.4933 115.585 35.48 111.211 35.48C106.838 35.48 103.451 34.4933 101.051 32.52C98.6779 30.5467 97.4913 27.68 97.4913 23.92V7.48H106.331V23.8C106.331 25.3467 106.745 26.5867 107.571 27.52C108.398 28.4267 109.598 28.88 111.171 28.88C112.745 28.88 113.945 28.4133 114.771 27.48C115.625 26.5467 116.051 25.32 116.051 23.8V7.48H124.891V23.92ZM156.932 15.92C156.932 17.6 156.478 19.12 155.572 20.48C154.665 21.84 153.345 22.84 151.612 23.48L157.732 35H147.812L142.932 24.96H139.652V35H130.812V7.48H147.652C149.625 7.48 151.305 7.86667 152.692 8.64C154.105 9.38667 155.158 10.4133 155.852 11.72C156.572 13 156.932 14.4 156.932 15.92ZM147.932 16.28C147.932 15.56 147.692 14.96 147.212 14.48C146.732 14 146.145 13.76 145.452 13.76H139.652V18.84H145.452C146.145 18.84 146.732 18.6 147.212 18.12C147.692 17.6133 147.932 17 147.932 16.28Z" fill="black"/>
<path fill-rule="evenodd" clip-rule="evenodd" d="M170.475 29.6H162.915V35H182.625V29.6H176.145V12.68H163.455V18.08H170.475V29.6ZM177.18 7.775C177.42 7.235 177.54 6.665 177.54 6.065C177.54 5.69267 177.494 5.33767 177.401 5H206.084V15.92H205.274C204.674 14.69 203.849 13.745 202.799 13.085C201.749 12.395 200.324 12.05 198.524 12.05C197.174 12.05 195.884 12.305 194.654 12.815C193.454 13.325 192.389 14.075 191.459 15.065C190.559 16.025 189.839 17.21 189.299 18.62C188.789 20.03 188.534 21.635 188.534 23.435V24.245C188.534 26.075 188.774 27.695 189.254 29.105C189.764 30.515 190.454 31.715 191.324 32.705C192.224 33.665 193.259 34.4 194.429 34.91C195.629 35.39 196.919 35.63 198.299 35.63C199.379 35.63 200.294 35.525 201.044 35.315C201.824 35.105 202.484 34.82 203.024 34.46C203.594 34.1 204.044 33.695 204.374 33.245C204.734 32.765 205.034 32.27 205.274 31.76H206.084V35H211.754V5H271V38H159V5H169.111C169.03 5.33767 168.99 5.69267 168.99 6.065C168.99 6.665 169.095 7.235 169.305 7.775C169.545 8.285 169.86 8.735 170.25 9.125C170.64 9.485 171.09 9.785 171.6 10.025C172.11 10.235 172.665 10.34 173.265 10.34C173.835 10.34 174.375 10.235 174.885 10.025C175.425 9.785 175.89 9.485 176.28 9.125C176.67 8.735 176.97 8.285 177.18 7.775ZM204.419 28.565C203.339 29.675 201.914 30.23 200.144 30.23C198.374 30.23 196.934 29.69 195.824 28.61C194.744 27.5 194.204 26 194.204 24.11V23.57C194.204 21.68 194.744 20.195 195.824 19.115C196.934 18.005 198.374 17.45 200.144 17.45C201.914 17.45 203.339 18.02 204.419 19.16C205.529 20.27 206.084 21.74 206.084 23.57V24.11C206.084 25.94 205.529 27.425 204.419 28.565ZM237.642 35V29.6H223.062V28.79L237.102 21.86V12.68H218.472V17.9H232.242V18.71L218.202 25.55V35H237.642ZM250.616 27.53C250.346 26.96 250.196 26.345 250.166 25.685H266.546V22.67C266.546 21.5 266.336 20.3 265.916 19.07C265.496 17.81 264.836 16.67 263.936 15.65C263.036 14.6 261.896 13.745 260.516 13.085C259.136 12.395 257.486 12.05 255.566 12.05C254.006 12.05 252.536 12.335 251.156 12.905C249.806 13.445 248.621 14.21 247.601 15.2C246.581 16.19 245.771 17.39 245.171 18.8C244.601 20.21 244.316 21.77 244.316 23.48V23.75C244.316 25.61 244.586 27.275 245.126 28.745C245.696 30.215 246.476 31.46 247.466 32.48C248.486 33.5 249.686 34.28 251.066 34.82C252.446 35.36 253.976 35.63 255.656 35.63C257.126 35.63 258.401 35.465 259.481 35.135C260.591 34.805 261.521 34.385 262.271 33.875C263.051 33.365 263.681 32.81 264.161 32.21C264.641 31.58 265.016 30.98 265.286 30.41L260.426 27.71C260.096 28.4 259.556 29 258.806 29.51C258.056 29.99 256.976 30.23 255.566 30.23C254.846 30.23 254.156 30.125 253.496 29.915C252.866 29.675 252.296 29.36 251.786 28.97C251.306 28.55 250.916 28.07 250.616 27.53ZM252.011 18.305C252.911 17.555 254.081 17.18 255.521 17.18C256.961 17.18 258.146 17.525 259.076 18.215C260.036 18.905 260.606 19.775 260.786 20.825H250.256C250.526 19.865 251.111 19.025 252.011 18.305Z" fill="url(#paint0_linear_17_479)"/>
<defs>
<linearGradient id="paint0_linear_17_479" x1="159" y1="21.5" x2="276" y2="21.5" gradientUnits="userSpaceOnUse">
<stop/>
<stop offset="0.25" stop-color="#AA896A"/>
</linearGradient>
</defs>
</svg>
