<svg width="271" height="87" viewBox="0 0 271 87" fill="none" xmlns="http://www.w3.org/2000/svg">
<path d="M21.28 7.48C22.6667 7.48 23.9333 7.77333 25.08 8.36C26.2533 8.92 27.1733 9.72 27.84 10.76C28.5333 11.8 28.88 12.96 28.88 14.24C28.88 17.6267 27.3467 19.76 24.28 20.64V20.8C27.7733 21.6 29.52 23.8933 29.52 27.68C29.52 29.12 29.16 30.4 28.44 31.52C27.7467 32.6133 26.7867 33.4667 25.56 34.08C24.3333 34.6933 22.9867 35 21.52 35H2.96V7.48H21.28ZM11.8 18.2H17.88C18.4667 18.2 18.9467 18 19.32 17.6C19.72 17.1733 19.92 16.6533 19.92 16.04V15.64C19.92 15.0533 19.72 14.56 19.32 14.16C18.92 13.7333 18.44 13.52 17.88 13.52H11.8V18.2ZM11.8 28.6H18.52C19.1067 28.6 19.5867 28.4 19.96 28C20.36 27.5733 20.56 27.0533 20.56 26.44V26.04C20.56 25.4267 20.36 24.92 19.96 24.52C19.5867 24.0933 19.1067 23.88 18.52 23.88H11.8V28.6ZM47.7728 7C52.5195 7 56.1861 8.21333 58.7728 10.64C61.3595 13.0667 62.6528 16.6 62.6528 21.24C62.6528 25.88 61.3595 29.4133 58.7728 31.84C56.1861 34.2667 52.5195 35.48 47.7728 35.48C43.0261 35.48 39.3595 34.28 36.7728 31.88C34.2128 29.4533 32.9328 25.9067 32.9328 21.24C32.9328 16.5733 34.2128 13.04 36.7728 10.64C39.3595 8.21333 43.0261 7 47.7728 7ZM47.7728 13.6C45.8795 13.6 44.4395 14.1733 43.4528 15.32C42.4661 16.4667 41.9728 18.0133 41.9728 19.96V22.52C41.9728 24.4667 42.4661 26.0133 43.4528 27.16C44.4395 28.3067 45.8795 28.88 47.7728 28.88C49.6661 28.88 51.1061 28.3067 52.0928 27.16C53.1061 26.0133 53.6128 24.4667 53.6128 22.52V19.96C53.6128 18.0133 53.1061 16.4667 52.0928 15.32C51.1061 14.1733 49.6661 13.6 47.7728 13.6ZM85.7331 7.48C87.1198 7.48 88.3865 7.77333 89.5331 8.36C90.7065 8.92 91.6265 9.72 92.2931 10.76C92.9865 11.8 93.3331 12.96 93.3331 14.24C93.3331 17.6267 91.7998 19.76 88.7331 20.64V20.8C92.2265 21.6 93.9731 23.8933 93.9731 27.68C93.9731 29.12 93.6131 30.4 92.8931 31.52C92.1998 32.6133 91.2398 33.4667 90.0131 34.08C88.7865 34.6933 87.4398 35 85.9731 35H67.4131V7.48H85.7331ZM76.2531 18.2H82.3331C82.9198 18.2 83.3998 18 83.7731 17.6C84.1731 17.1733 84.3731 16.6533 84.3731 16.04V15.64C84.3731 15.0533 84.1731 14.56 83.7731 14.16C83.3731 13.7333 82.8931 13.52 82.3331 13.52H76.2531V18.2ZM76.2531 28.6H82.9731C83.5598 28.6 84.0398 28.4 84.4131 28C84.8131 27.5733 85.0131 27.0533 85.0131 26.44V26.04C85.0131 25.4267 84.8131 24.92 84.4131 24.52C84.0398 24.0933 83.5598 23.88 82.9731 23.88H76.2531V28.6ZM124.891 23.92C124.891 27.68 123.705 30.5467 121.331 32.52C118.958 34.4933 115.585 35.48 111.211 35.48C106.838 35.48 103.451 34.4933 101.051 32.52C98.6779 30.5467 97.4913 27.68 97.4913 23.92V7.48H106.331V23.8C106.331 25.3467 106.745 26.5867 107.571 27.52C108.398 28.4267 109.598 28.88 111.171 28.88C112.745 28.88 113.945 28.4133 114.771 27.48C115.625 26.5467 116.051 25.32 116.051 23.8V7.48H124.891V23.92ZM156.932 15.92C156.932 17.6 156.478 19.12 155.572 20.48C154.665 21.84 153.345 22.84 151.612 23.48L157.732 35H147.812L142.932 24.96H139.652V35H130.812V7.48H147.652C149.625 7.48 151.305 7.86667 152.692 8.64C154.105 9.38667 155.158 10.4133 155.852 11.72C156.572 13 156.932 14.4 156.932 15.92ZM147.932 16.28C147.932 15.56 147.692 14.96 147.212 14.48C146.732 14 146.145 13.76 145.452 13.76H139.652V18.84H145.452C146.145 18.84 146.732 18.6 147.212 18.12C147.692 17.6133 147.932 17 147.932 16.28Z" fill="black"/>
<path fill-rule="evenodd" clip-rule="evenodd" d="M170.475 29.6H162.915V35H182.625V29.6H176.145V12.68H163.455V18.08H170.475V29.6ZM177.18 7.775C177.42 7.235 177.54 6.665 177.54 6.065C177.54 5.69267 177.494 5.33767 177.401 5H206.084V15.92H205.274C204.674 14.69 203.849 13.745 202.799 13.085C201.749 12.395 200.324 12.05 198.524 12.05C197.174 12.05 195.884 12.305 194.654 12.815C193.454 13.325 192.389 14.075 191.459 15.065C190.559 16.025 189.839 17.21 189.299 18.62C188.789 20.03 188.534 21.635 188.534 23.435V24.245C188.534 26.075 188.774 27.695 189.254 29.105C189.764 30.515 190.454 31.715 191.324 32.705C192.224 33.665 193.259 34.4 194.429 34.91C195.629 35.39 196.919 35.63 198.299 35.63C199.379 35.63 200.294 35.525 201.044 35.315C201.824 35.105 202.484 34.82 203.024 34.46C203.594 34.1 204.044 33.695 204.374 33.245C204.734 32.765 205.034 32.27 205.274 31.76H206.084V35H211.754V5H271V38H159V5H169.111C169.03 5.33767 168.99 5.69267 168.99 6.065C168.99 6.665 169.095 7.235 169.305 7.775C169.545 8.285 169.86 8.735 170.25 9.125C170.64 9.485 171.09 9.785 171.6 10.025C172.11 10.235 172.665 10.34 173.265 10.34C173.835 10.34 174.375 10.235 174.885 10.025C175.425 9.785 175.89 9.485 176.28 9.125C176.67 8.735 176.97 8.285 177.18 7.775ZM204.419 28.565C203.339 29.675 201.914 30.23 200.144 30.23C198.374 30.23 196.934 29.69 195.824 28.61C194.744 27.5 194.204 26 194.204 24.11V23.57C194.204 21.68 194.744 20.195 195.824 19.115C196.934 18.005 198.374 17.45 200.144 17.45C201.914 17.45 203.339 18.02 204.419 19.16C205.529 20.27 206.084 21.74 206.084 23.57V24.11C206.084 25.94 205.529 27.425 204.419 28.565ZM237.642 35V29.6H223.062V28.79L237.102 21.86V12.68H218.472V17.9H232.242V18.71L218.202 25.55V35H237.642ZM250.616 27.53C250.346 26.96 250.196 26.345 250.166 25.685H266.546V22.67C266.546 21.5 266.336 20.3 265.916 19.07C265.496 17.81 264.836 16.67 263.936 15.65C263.036 14.6 261.896 13.745 260.516 13.085C259.136 12.395 257.486 12.05 255.566 12.05C254.006 12.05 252.536 12.335 251.156 12.905C249.806 13.445 248.621 14.21 247.601 15.2C246.581 16.19 245.771 17.39 245.171 18.8C244.601 20.21 244.316 21.77 244.316 23.48V23.75C244.316 25.61 244.586 27.275 245.126 28.745C245.696 30.215 246.476 31.46 247.466 32.48C248.486 33.5 249.686 34.28 251.066 34.82C252.446 35.36 253.976 35.63 255.656 35.63C257.126 35.63 258.401 35.465 259.481 35.135C260.591 34.805 261.521 34.385 262.271 33.875C263.051 33.365 263.681 32.81 264.161 32.21C264.641 31.58 265.016 30.98 265.286 30.41L260.426 27.71C260.096 28.4 259.556 29 258.806 29.51C258.056 29.99 256.976 30.23 255.566 30.23C254.846 30.23 254.156 30.125 253.496 29.915C252.866 29.675 252.296 29.36 251.786 28.97C251.306 28.55 250.916 28.07 250.616 27.53ZM252.011 18.305C252.911 17.555 254.081 17.18 255.521 17.18C256.961 17.18 258.146 17.525 259.076 18.215C260.036 18.905 260.606 19.775 260.786 20.825H250.256C250.526 19.865 251.111 19.025 252.011 18.305Z" fill="url(#paint0_linear_16_255)"/>
<path fill-rule="evenodd" clip-rule="evenodd" d="M263.007 5L266.842 0.0488586L261.807 5H263.007ZM237.451 38L225.778 53.0733L236.375 64.4558C238.35 63.0992 240.739 62.3013 243.315 62.2912C250.138 62.2645 255.691 67.7741 255.717 74.5972C255.723 76.123 255.453 77.5852 254.952 78.9364L260.861 78.5888L265.247 76.994L262.855 79.3861L258.071 81.3795L253.484 81.7323C251.259 84.9041 247.58 86.9836 243.411 86.9999C236.588 87.0266 231.035 81.517 231.009 74.6939C230.999 72.2691 231.689 70.0048 232.888 68.0919L232.555 67.4257L220.196 60.2495L210.628 51.0799L203.85 42.3089L171.158 0.0488586L219 47.0931L228.247 38H237.451ZM217.405 60.2495L211.425 55.0667L202.255 64.2363L201.756 64.4861C199.747 63.0932 197.306 62.2809 194.676 62.2912C187.853 62.3179 182.343 67.8707 182.37 74.6939C182.396 81.517 187.949 87.0266 194.772 86.9999C201.596 86.9732 207.105 81.4204 207.078 74.5972C207.069 72.1921 206.373 69.9502 205.177 68.0565C205.263 67.8124 205.373 67.5689 205.445 67.4257L206.242 67.0271L217.405 60.2495ZM203.053 75.0006C203.053 79.4043 199.483 82.9742 195.079 82.9742C190.676 82.9742 187.106 79.4043 187.106 75.0006C187.106 70.597 190.676 67.0271 195.079 67.0271C199.483 67.0271 203.053 70.597 203.053 75.0006ZM243.718 82.9742C248.122 82.9742 251.692 79.4043 251.692 75.0006C251.692 70.597 248.122 67.0271 243.718 67.0271C239.314 67.0271 235.745 70.597 235.745 75.0006C235.745 79.4043 239.314 82.9742 243.718 82.9742ZM220.595 52.2759C220.595 53.3768 219.702 54.2693 218.601 54.2693C217.5 54.2693 216.608 53.3768 216.608 52.2759C216.608 51.175 217.5 50.2825 218.601 50.2825C219.702 50.2825 220.595 51.175 220.595 52.2759Z" fill="black"/>
<path d="M3.07 57L5.78 50.14H7.03L9.75 57H8.72L8.05 55.3H4.71L4.05 57H3.07ZM5.02 54.49H7.73L6.9 52.34C6.88 52.28 6.85 52.1967 6.81 52.09C6.77 51.9833 6.72667 51.8667 6.68 51.74C6.63333 51.6067 6.58667 51.4733 6.54 51.34C6.49333 51.2 6.45 51.0733 6.41 50.96H6.35C6.30333 51.0933 6.25 51.2467 6.19 51.42C6.13 51.5933 6.07 51.7633 6.01 51.93C5.95 52.09 5.9 52.2267 5.86 52.34L5.02 54.49ZM10.5064 57V51.74H11.2164L11.2964 52.61H11.3664C11.4197 52.4433 11.4931 52.2867 11.5864 52.14C11.6797 51.9867 11.8064 51.8633 11.9664 51.77C12.1264 51.67 12.3231 51.62 12.5564 51.62C12.6564 51.62 12.7464 51.63 12.8264 51.65C12.9131 51.6633 12.9764 51.68 13.0164 51.7V52.51H12.6864C12.4597 52.51 12.2631 52.55 12.0964 52.63C11.9364 52.7033 11.8031 52.81 11.6964 52.95C11.5897 53.09 11.5097 53.2567 11.4564 53.45C11.4097 53.6433 11.3864 53.85 11.3864 54.07V57H10.5064ZM15.0567 57.12C14.7834 57.12 14.5701 57.07 14.4167 56.97C14.2634 56.8633 14.1534 56.7267 14.0867 56.56C14.0201 56.3867 13.9867 56.2033 13.9867 56.01V52.48H13.3067V51.74H14.0067L14.1667 50.27H14.8667V51.74H15.8567V52.48H14.8667V55.88C14.8667 56.0467 14.8967 56.1733 14.9567 56.26C15.0167 56.34 15.1301 56.38 15.2967 56.38H15.8567V56.96C15.7901 56.9933 15.7101 57.02 15.6167 57.04C15.5234 57.06 15.4267 57.0767 15.3267 57.09C15.2334 57.11 15.1434 57.12 15.0567 57.12ZM17.0055 57V52.48H16.2255V51.74H17.0055V50.9C17.0055 50.6933 17.0355 50.5 17.0955 50.32C17.1555 50.1333 17.2688 49.9833 17.4355 49.87C17.6021 49.75 17.8355 49.69 18.1355 49.69C18.2288 49.69 18.3188 49.6967 18.4055 49.71C18.4988 49.7167 18.5855 49.73 18.6655 49.75C18.7521 49.7633 18.8288 49.78 18.8955 49.8V50.43H18.3655C18.1988 50.43 18.0755 50.4733 17.9955 50.56C17.9221 50.64 17.8855 50.7567 17.8855 50.91V51.74H18.8955V52.48H17.8855V57H17.0055ZM21.2282 57.12C20.7215 57.12 20.3149 56.99 20.0082 56.73C19.7015 56.47 19.5482 56.0167 19.5482 55.37V51.74H20.4282V55.25C20.4282 55.47 20.4549 55.65 20.5082 55.79C20.5615 55.93 20.6382 56.04 20.7382 56.12C20.8382 56.2 20.9549 56.2567 21.0882 56.29C21.2282 56.3233 21.3782 56.34 21.5382 56.34C21.7915 56.34 22.0249 56.28 22.2382 56.16C22.4515 56.04 22.6249 55.8667 22.7582 55.64C22.8982 55.4067 22.9682 55.1367 22.9682 54.83V51.74H23.8482V57H23.1382L23.0582 56.21H22.9882C22.8482 56.4233 22.6882 56.5967 22.5082 56.73C22.3349 56.8633 22.1382 56.96 21.9182 57.02C21.7049 57.0867 21.4749 57.12 21.2282 57.12ZM25.2134 57V49.77H26.0934V57H25.2134ZM32.6494 57.12C31.9494 57.12 31.356 56.9933 30.8694 56.74C30.3827 56.48 30.0094 56.09 29.7494 55.57C29.496 55.0433 29.3694 54.3767 29.3694 53.57C29.3694 52.3767 29.6594 51.4867 30.2394 50.9C30.8194 50.3133 31.626 50.02 32.6594 50.02C33.246 50.02 33.766 50.1167 34.2194 50.31C34.6727 50.4967 35.026 50.7833 35.2794 51.17C35.5394 51.55 35.6694 52.03 35.6694 52.61H34.7094C34.7094 52.21 34.6227 51.88 34.4494 51.62C34.2827 51.36 34.046 51.1667 33.7394 51.04C33.4327 50.9067 33.0727 50.84 32.6594 50.84C32.1794 50.84 31.766 50.9333 31.4194 51.12C31.0727 51.3067 30.8094 51.5967 30.6294 51.99C30.4494 52.3767 30.3594 52.8767 30.3594 53.49V53.7C30.3594 54.3067 30.4494 54.8033 30.6294 55.19C30.8094 55.57 31.0694 55.85 31.4094 56.03C31.756 56.21 32.1727 56.3 32.6594 56.3C33.086 56.3 33.4527 56.2367 33.7594 56.11C34.0727 55.9833 34.3127 55.79 34.4794 55.53C34.6527 55.2633 34.7394 54.93 34.7394 54.53H35.6694C35.6694 55.1233 35.536 55.61 35.2694 55.99C35.0094 56.37 34.6527 56.6533 34.1994 56.84C33.746 57.0267 33.2294 57.12 32.6494 57.12ZM38.4548 57.12C37.9481 57.12 37.5414 56.99 37.2348 56.73C36.9281 56.47 36.7748 56.0167 36.7748 55.37V51.74H37.6548V55.25C37.6548 55.47 37.6814 55.65 37.7348 55.79C37.7881 55.93 37.8648 56.04 37.9648 56.12C38.0648 56.2 38.1814 56.2567 38.3148 56.29C38.4548 56.3233 38.6048 56.34 38.7648 56.34C39.0181 56.34 39.2514 56.28 39.4648 56.16C39.6781 56.04 39.8514 55.8667 39.9848 55.64C40.1248 55.4067 40.1948 55.1367 40.1948 54.83V51.74H41.0748V57H40.3648L40.2848 56.21H40.2148C40.0748 56.4233 39.9148 56.5967 39.7348 56.73C39.5614 56.8633 39.3648 56.96 39.1448 57.02C38.9314 57.0867 38.7014 57.12 38.4548 57.12ZM43.67 57.12C43.3967 57.12 43.1833 57.07 43.03 56.97C42.8767 56.8633 42.7667 56.7267 42.7 56.56C42.6333 56.3867 42.6 56.2033 42.6 56.01V52.48H41.92V51.74H42.62L42.78 50.27H43.48V51.74H44.47V52.48H43.48V55.88C43.48 56.0467 43.51 56.1733 43.57 56.26C43.63 56.34 43.7433 56.38 43.91 56.38H44.47V56.96C44.4033 56.9933 44.3233 57.02 44.23 57.04C44.1367 57.06 44.04 57.0767 43.94 57.09C43.8467 57.11 43.7567 57.12 43.67 57.12ZM47.2488 57.12C46.8888 57.12 46.5721 57.0833 46.2988 57.01C46.0254 56.9367 45.7988 56.83 45.6188 56.69C45.4388 56.55 45.3021 56.3833 45.2088 56.19C45.1154 55.9967 45.0688 55.7767 45.0688 55.53C45.0688 55.4967 45.0688 55.4667 45.0688 55.44C45.0688 55.4067 45.0721 55.38 45.0788 55.36H45.9488C45.9421 55.3867 45.9388 55.41 45.9388 55.43C45.9388 55.45 45.9388 55.47 45.9388 55.49C45.9454 55.7233 46.0054 55.9067 46.1188 56.04C46.2388 56.1733 46.4021 56.2667 46.6088 56.32C46.8154 56.3733 47.0454 56.4 47.2988 56.4C47.5188 56.4 47.7221 56.3733 47.9088 56.32C48.0954 56.26 48.2421 56.1733 48.3488 56.06C48.4621 55.94 48.5188 55.79 48.5188 55.61C48.5188 55.39 48.4454 55.2233 48.2988 55.11C48.1588 54.99 47.9721 54.8967 47.7388 54.83C47.5054 54.7633 47.2621 54.6933 47.0088 54.62C46.7954 54.56 46.5821 54.4933 46.3688 54.42C46.1554 54.3467 45.9621 54.2567 45.7888 54.15C45.6221 54.0433 45.4854 53.9067 45.3787 53.74C45.2788 53.5667 45.2288 53.35 45.2288 53.09C45.2288 52.8567 45.2754 52.65 45.3688 52.47C45.4688 52.29 45.6088 52.1367 45.7888 52.01C45.9688 51.8833 46.1854 51.79 46.4388 51.73C46.6988 51.6633 46.9854 51.63 47.2988 51.63C47.6321 51.63 47.9221 51.6667 48.1688 51.74C48.4221 51.8133 48.6321 51.9167 48.7988 52.05C48.9654 52.1833 49.0888 52.3367 49.1688 52.51C49.2488 52.6767 49.2888 52.8567 49.2888 53.05C49.2888 53.09 49.2888 53.13 49.2888 53.17C49.2888 53.2033 49.2854 53.23 49.2788 53.25H48.4188V53.14C48.4188 53.0067 48.3821 52.88 48.3088 52.76C48.2421 52.6333 48.1221 52.5333 47.9488 52.46C47.7821 52.38 47.5488 52.34 47.2488 52.34C47.0554 52.34 46.8888 52.3567 46.7488 52.39C46.6088 52.4167 46.4921 52.4633 46.3988 52.53C46.3054 52.59 46.2354 52.6633 46.1887 52.75C46.1421 52.83 46.1188 52.9233 46.1188 53.03C46.1188 53.2033 46.1754 53.3367 46.2888 53.43C46.4021 53.5233 46.5521 53.6 46.7388 53.66C46.9321 53.72 47.1388 53.7867 47.3587 53.86C47.5921 53.9267 47.8288 53.9967 48.0688 54.07C48.3154 54.1367 48.5388 54.2233 48.7388 54.33C48.9454 54.4367 49.1088 54.5833 49.2288 54.77C49.3554 54.95 49.4188 55.19 49.4188 55.49C49.4188 55.77 49.3654 56.0133 49.2588 56.22C49.1521 56.4267 48.9988 56.5967 48.7988 56.73C48.6054 56.8633 48.3754 56.96 48.1088 57.02C47.8488 57.0867 47.5621 57.12 47.2488 57.12ZM50.6064 58.47V58.06C50.7331 58.0333 50.8364 57.97 50.9164 57.87C51.0031 57.77 51.0664 57.6433 51.1064 57.49C51.1464 57.3433 51.1664 57.18 51.1664 57H50.7064V55.95H51.6764V56.89C51.6764 57.2767 51.6197 57.5767 51.5064 57.79C51.3997 58.01 51.2631 58.17 51.0964 58.27C50.9364 58.37 50.7731 58.4367 50.6064 58.47ZM55.5397 57V50.14H58.0997C58.8197 50.14 59.433 50.26 59.9397 50.5C60.4464 50.74 60.833 51.1133 61.0997 51.62C61.373 52.12 61.5097 52.77 61.5097 53.57C61.5097 54.3567 61.373 55.0033 61.0997 55.51C60.833 56.0167 60.4464 56.3933 59.9397 56.64C59.433 56.88 58.8197 57 58.0997 57H55.5397ZM56.4897 56.18H58.0797C58.4597 56.18 58.7997 56.1333 59.0997 56.04C59.3997 55.94 59.6564 55.79 59.8697 55.59C60.083 55.39 60.243 55.1333 60.3497 54.82C60.463 54.5 60.5197 54.12 60.5197 53.68V53.48C60.5197 53.0267 60.463 52.6433 60.3497 52.33C60.243 52.01 60.083 51.75 59.8697 51.55C59.663 51.35 59.4097 51.2033 59.1097 51.11C58.8097 51.01 58.4664 50.96 58.0797 50.96H56.4897V56.18ZM64.8134 57.12C64.2934 57.12 63.8534 57.0233 63.4934 56.83C63.1401 56.63 62.8701 56.3267 62.6834 55.92C62.5034 55.5133 62.4134 54.9967 62.4134 54.37C62.4134 53.7367 62.5034 53.22 62.6834 52.82C62.8701 52.4133 63.1434 52.1133 63.5034 51.92C63.8634 51.72 64.3134 51.62 64.8534 51.62C65.3468 51.62 65.7601 51.7167 66.0934 51.91C66.4268 52.0967 66.6768 52.38 66.8434 52.76C67.0168 53.1333 67.1034 53.6033 67.1034 54.17V54.59H63.3234C63.3368 55.01 63.3968 55.3567 63.5034 55.63C63.6168 55.8967 63.7834 56.0933 64.0034 56.22C64.2234 56.34 64.5001 56.4 64.8334 56.4C65.0601 56.4 65.2568 56.3733 65.4234 56.32C65.5968 56.26 65.7401 56.1767 65.8534 56.07C65.9734 55.9633 66.0634 55.8367 66.1234 55.69C66.1834 55.5433 66.2168 55.3833 66.2234 55.21H67.0834C67.0768 55.49 67.0234 55.75 66.9234 55.99C66.8234 56.2233 66.6768 56.4233 66.4834 56.59C66.2901 56.7567 66.0534 56.8867 65.7734 56.98C65.4934 57.0733 65.1734 57.12 64.8134 57.12ZM63.3434 53.93H66.1934C66.1934 53.6367 66.1601 53.39 66.0934 53.19C66.0268 52.99 65.9301 52.8267 65.8034 52.7C65.6834 52.5733 65.5401 52.4833 65.3734 52.43C65.2134 52.37 65.0301 52.34 64.8234 52.34C64.5168 52.34 64.2568 52.3967 64.0434 52.51C63.8301 52.6233 63.6668 52.7967 63.5534 53.03C63.4401 53.2633 63.3701 53.5633 63.3434 53.93ZM68.402 57V52.48H67.622V51.74H68.402V50.9C68.402 50.6933 68.432 50.5 68.492 50.32C68.552 50.1333 68.6653 49.9833 68.832 49.87C68.9986 49.75 69.232 49.69 69.532 49.69C69.6253 49.69 69.7153 49.6967 69.802 49.71C69.8953 49.7167 69.982 49.73 70.062 49.75C70.1486 49.7633 70.2253 49.78 70.292 49.8V50.43H69.762C69.5953 50.43 69.472 50.4733 69.392 50.56C69.3186 50.64 69.282 50.7567 69.282 50.91V51.74H70.292V52.48H69.282V57H68.402ZM70.992 50.75V49.77H71.872V50.75H70.992ZM70.992 57V51.74H71.872V57H70.992ZM73.2505 57V51.74H73.9605L74.0405 52.53H74.1105C74.2505 52.3167 74.4072 52.1433 74.5805 52.01C74.7605 51.8767 74.9572 51.78 75.1705 51.72C75.3905 51.6533 75.6239 51.62 75.8705 51.62C76.2039 51.62 76.4939 51.6767 76.7405 51.79C76.9939 51.9033 77.1905 52.0867 77.3305 52.34C77.4772 52.5933 77.5505 52.9367 77.5505 53.37V57H76.6705V53.49C76.6705 53.27 76.6405 53.09 76.5805 52.95C76.5272 52.81 76.4505 52.7 76.3505 52.62C76.2572 52.54 76.1405 52.4833 76.0005 52.45C75.8672 52.4167 75.7172 52.4 75.5505 52.4C75.3039 52.4 75.0705 52.46 74.8505 52.58C74.6305 52.7 74.4539 52.8733 74.3205 53.1C74.1939 53.3267 74.1305 53.5967 74.1305 53.91V57H73.2505ZM80.9853 57.12C80.4653 57.12 80.0253 57.0233 79.6653 56.83C79.312 56.63 79.042 56.3267 78.8553 55.92C78.6753 55.5133 78.5853 54.9967 78.5853 54.37C78.5853 53.7367 78.6753 53.22 78.8553 52.82C79.042 52.4133 79.3153 52.1133 79.6753 51.92C80.0353 51.72 80.4853 51.62 81.0253 51.62C81.5186 51.62 81.932 51.7167 82.2653 51.91C82.5986 52.0967 82.8486 52.38 83.0153 52.76C83.1886 53.1333 83.2753 53.6033 83.2753 54.17V54.59H79.4953C79.5086 55.01 79.5686 55.3567 79.6753 55.63C79.7886 55.8967 79.9553 56.0933 80.1753 56.22C80.3953 56.34 80.672 56.4 81.0053 56.4C81.232 56.4 81.4286 56.3733 81.5953 56.32C81.7686 56.26 81.912 56.1767 82.0253 56.07C82.1453 55.9633 82.2353 55.8367 82.2953 55.69C82.3553 55.5433 82.3886 55.3833 82.3953 55.21H83.2553C83.2486 55.49 83.1953 55.75 83.0953 55.99C82.9953 56.2233 82.8486 56.4233 82.6553 56.59C82.462 56.7567 82.2253 56.8867 81.9453 56.98C81.6653 57.0733 81.3453 57.12 80.9853 57.12ZM79.5153 53.93H82.3653C82.3653 53.6367 82.332 53.39 82.2653 53.19C82.1986 52.99 82.102 52.8267 81.9753 52.7C81.8553 52.5733 81.712 52.4833 81.5453 52.43C81.3853 52.37 81.202 52.34 80.9953 52.34C80.6886 52.34 80.4286 52.3967 80.2153 52.51C80.002 52.6233 79.8386 52.7967 79.7253 53.03C79.612 53.2633 79.542 53.5633 79.5153 53.93ZM86.1538 57.12C85.7205 57.12 85.3472 57.0233 85.0338 56.83C84.7272 56.6367 84.4872 56.3367 84.3138 55.93C84.1472 55.5167 84.0638 54.9833 84.0638 54.33C84.0638 53.71 84.1505 53.2 84.3238 52.8C84.4972 52.4 84.7372 52.1033 85.0438 51.91C85.3505 51.7167 85.7072 51.62 86.1138 51.62C86.3472 51.62 86.5638 51.6467 86.7638 51.7C86.9638 51.7533 87.1405 51.8367 87.2938 51.95C87.4538 52.0633 87.5938 52.2133 87.7138 52.4H87.7738V49.77H88.6538V57H87.9438L87.8638 56.25H87.7938C87.6138 56.5433 87.3805 56.7633 87.0938 56.91C86.8072 57.05 86.4938 57.12 86.1538 57.12ZM86.3638 56.35C86.6972 56.35 86.9672 56.2767 87.1738 56.13C87.3805 55.9833 87.5305 55.77 87.6238 55.49C87.7238 55.21 87.7738 54.8633 87.7738 54.45V54.29C87.7738 53.93 87.7372 53.6267 87.6638 53.38C87.5905 53.1333 87.4905 52.9367 87.3638 52.79C87.2372 52.6433 87.0905 52.54 86.9238 52.48C86.7572 52.42 86.5805 52.39 86.3938 52.39C86.0672 52.39 85.8005 52.4567 85.5938 52.59C85.3872 52.7167 85.2338 52.92 85.1338 53.2C85.0338 53.4733 84.9838 53.83 84.9838 54.27V54.48C84.9838 54.9333 85.0372 55.3 85.1438 55.58C85.2505 55.8533 85.4038 56.05 85.6038 56.17C85.8105 56.29 86.0638 56.35 86.3638 56.35ZM92.2975 57V50.14H93.2475V56.17H96.6575V57H92.2975ZM97.4888 50.75V49.77H98.3688V50.75H97.4888ZM97.4888 57V51.74H98.3688V57H97.4888ZM99.7349 57V51.74H100.445L100.525 52.53H100.595C100.735 52.3167 100.892 52.1433 101.065 52.01C101.245 51.8767 101.442 51.78 101.655 51.72C101.875 51.6533 102.108 51.62 102.355 51.62C102.688 51.62 102.978 51.6767 103.225 51.79C103.478 51.9033 103.675 52.0867 103.815 52.34C103.962 52.5933 104.035 52.9367 104.035 53.37V57H103.155V53.49C103.155 53.27 103.125 53.09 103.065 52.95C103.012 52.81 102.935 52.7 102.835 52.62C102.742 52.54 102.625 52.4833 102.485 52.45C102.352 52.4167 102.202 52.4 102.035 52.4C101.788 52.4 101.555 52.46 101.335 52.58C101.115 52.7 100.938 52.8733 100.805 53.1C100.678 53.3267 100.615 53.5967 100.615 53.91V57H99.7349ZM107.47 57.12C106.95 57.12 106.51 57.0233 106.15 56.83C105.796 56.63 105.526 56.3267 105.34 55.92C105.16 55.5133 105.07 54.9967 105.07 54.37C105.07 53.7367 105.16 53.22 105.34 52.82C105.526 52.4133 105.8 52.1133 106.16 51.92C106.52 51.72 106.97 51.62 107.51 51.62C108.003 51.62 108.416 51.7167 108.75 51.91C109.083 52.0967 109.333 52.38 109.5 52.76C109.673 53.1333 109.76 53.6033 109.76 54.17V54.59H105.98C105.993 55.01 106.053 55.3567 106.16 55.63C106.273 55.8967 106.44 56.0933 106.66 56.22C106.88 56.34 107.156 56.4 107.49 56.4C107.716 56.4 107.913 56.3733 108.08 56.32C108.253 56.26 108.396 56.1767 108.51 56.07C108.63 55.9633 108.72 55.8367 108.78 55.69C108.84 55.5433 108.873 55.3833 108.88 55.21H109.74C109.733 55.49 109.68 55.75 109.58 55.99C109.48 56.2233 109.333 56.4233 109.14 56.59C108.946 56.7567 108.71 56.8867 108.43 56.98C108.15 57.0733 107.83 57.12 107.47 57.12ZM106 53.93H108.85C108.85 53.6367 108.816 53.39 108.75 53.19C108.683 52.99 108.586 52.8267 108.46 52.7C108.34 52.5733 108.196 52.4833 108.03 52.43C107.87 52.37 107.686 52.34 107.48 52.34C107.173 52.34 106.913 52.3967 106.7 52.51C106.486 52.6233 106.323 52.7967 106.21 53.03C106.096 53.2633 106.026 53.5633 106 53.93ZM112.688 57.12C112.328 57.12 112.012 57.0833 111.738 57.01C111.465 56.9367 111.238 56.83 111.058 56.69C110.878 56.55 110.742 56.3833 110.648 56.19C110.555 55.9967 110.508 55.7767 110.508 55.53C110.508 55.4967 110.508 55.4667 110.508 55.44C110.508 55.4067 110.512 55.38 110.518 55.36H111.388C111.382 55.3867 111.378 55.41 111.378 55.43C111.378 55.45 111.378 55.47 111.378 55.49C111.385 55.7233 111.445 55.9067 111.558 56.04C111.678 56.1733 111.842 56.2667 112.048 56.32C112.255 56.3733 112.485 56.4 112.738 56.4C112.958 56.4 113.162 56.3733 113.348 56.32C113.535 56.26 113.682 56.1733 113.788 56.06C113.902 55.94 113.958 55.79 113.958 55.61C113.958 55.39 113.885 55.2233 113.738 55.11C113.598 54.99 113.412 54.8967 113.178 54.83C112.945 54.7633 112.702 54.6933 112.448 54.62C112.235 54.56 112.022 54.4933 111.808 54.42C111.595 54.3467 111.402 54.2567 111.228 54.15C111.062 54.0433 110.925 53.9067 110.818 53.74C110.718 53.5667 110.668 53.35 110.668 53.09C110.668 52.8567 110.715 52.65 110.808 52.47C110.908 52.29 111.048 52.1367 111.228 52.01C111.408 51.8833 111.625 51.79 111.878 51.73C112.138 51.6633 112.425 51.63 112.738 51.63C113.072 51.63 113.362 51.6667 113.608 51.74C113.862 51.8133 114.072 51.9167 114.238 52.05C114.405 52.1833 114.528 52.3367 114.608 52.51C114.688 52.6767 114.728 52.8567 114.728 53.05C114.728 53.09 114.728 53.13 114.728 53.17C114.728 53.2033 114.725 53.23 114.718 53.25H113.858V53.14C113.858 53.0067 113.822 52.88 113.748 52.76C113.682 52.6333 113.562 52.5333 113.388 52.46C113.222 52.38 112.988 52.34 112.688 52.34C112.495 52.34 112.328 52.3567 112.188 52.39C112.048 52.4167 111.932 52.4633 111.838 52.53C111.745 52.59 111.675 52.6633 111.628 52.75C111.582 52.83 111.558 52.9233 111.558 53.03C111.558 53.2033 111.615 53.3367 111.728 53.43C111.842 53.5233 111.992 53.6 112.178 53.66C112.372 53.72 112.578 53.7867 112.798 53.86C113.032 53.9267 113.268 53.9967 113.508 54.07C113.755 54.1367 113.978 54.2233 114.178 54.33C114.385 54.4367 114.548 54.5833 114.668 54.77C114.795 54.95 114.858 55.19 114.858 55.49C114.858 55.77 114.805 56.0133 114.698 56.22C114.592 56.4267 114.438 56.5967 114.238 56.73C114.045 56.8633 113.815 56.96 113.548 57.02C113.288 57.0867 113.002 57.12 112.688 57.12Z" fill="#AA896A"/>
<defs>
<linearGradient id="paint0_linear_16_255" x1="159" y1="21.5" x2="276" y2="21.5" gradientUnits="userSpaceOnUse">
<stop/>
<stop offset="0.25" stop-color="#AA896A"/>
</linearGradient>
</defs>
</svg>
