<svg width="268" height="245" viewBox="0 0 268 245" fill="none" xmlns="http://www.w3.org/2000/svg">
<path fill-rule="evenodd" clip-rule="evenodd" d="M268 27.5532H0V37.72H268V27.5532ZM268 38.72H0V51.12H268V38.72ZM0 64.52V52.12H268V64.52H0ZM268 65.52H0V77.92H268V65.52ZM0 91.3199V78.92H268V91.3199H0ZM268 92.3199H0V101.253H268V92.3199Z" fill="url(#paint0_linear_18_4131)"/>
<path fill-rule="evenodd" clip-rule="evenodd" d="M247.245 27.5532L268 0.753235L240.746 27.5532H247.245ZM239.372 37.7199H230.407L229.39 38.7199H238.597L239.372 37.7199ZM228.994 51.1199H216.78L215.763 52.1199H228.22L228.994 51.1199ZM218.617 64.5199H203.153L202.136 65.5199H217.842L218.617 64.5199ZM208.239 77.9199H189.525L188.508 78.9199H207.465L208.239 77.9199ZM197.862 91.3199H175.898L174.881 92.3199H197.088L197.862 91.3199ZM190.169 101.253L152.983 149.27L182.666 181.151C188.196 177.352 194.888 175.117 202.103 175.088C221.214 175.014 236.767 190.446 236.842 209.557C236.859 213.83 236.1 217.926 234.698 221.71L251.25 220.737L263.533 216.27L256.833 222.97L243.433 228.553L230.587 229.541C224.355 238.425 214.051 244.25 202.374 244.295C183.263 244.37 167.71 228.938 167.635 209.827C167.609 203.036 169.54 196.694 172.9 191.336L171.967 189.47L137.35 169.37L110.55 143.687L91.5667 119.12L0 0.753235L134 132.52L165.797 101.253H190.169ZM129.533 169.37L112.783 154.853L87.1 180.537L85.7006 181.236C80.0741 177.335 73.2364 175.06 65.8701 175.088C46.7591 175.163 31.3272 190.716 31.402 209.827C31.4767 228.938 47.0298 244.37 66.1407 244.295C85.2516 244.221 100.684 228.668 100.609 209.557C100.582 202.82 98.6329 196.541 95.2822 191.236C95.5242 190.553 95.8328 189.871 96.0333 189.47L98.2667 188.353L129.533 169.37ZM89.3333 210.687C89.3333 223.021 79.3344 233.02 67 233.02C54.6656 233.02 44.6667 223.021 44.6667 210.687C44.6667 198.352 54.6656 188.353 67 188.353C79.3344 188.353 89.3333 198.352 89.3333 210.687ZM203.233 233.02C215.568 233.02 225.567 223.021 225.567 210.687C225.567 198.352 215.568 188.353 203.233 188.353C190.899 188.353 180.9 198.352 180.9 210.687C180.9 223.021 190.899 233.02 203.233 233.02ZM138.467 147.037C138.467 150.12 135.967 152.62 132.883 152.62C129.8 152.62 127.3 150.12 127.3 147.037C127.3 143.953 129.8 141.453 132.883 141.453C135.967 141.453 138.467 143.953 138.467 147.037Z" fill="black"/>
<defs>
<linearGradient id="paint0_linear_18_4131" x1="0" y1="64.4032" x2="268" y2="64.4032" gradientUnits="userSpaceOnUse">
<stop stop-color="white"/>
<stop offset="0.25" stop-color="#AA896A"/>
</linearGradient>
</defs>
</svg>
