<svg width="216" height="234" viewBox="0 0 216 234" fill="none" xmlns="http://www.w3.org/2000/svg">
<path fill-rule="evenodd" clip-rule="evenodd" d="M173 80.3301H37V84.9967H173V80.3301ZM173 85.9967H37V91.7968H173V85.9967ZM37 98.5968V92.7968H173V98.5968H37ZM173 99.5968H37V105.397H173V99.5968ZM37 112.197V106.397H173V112.197H37ZM173 113.197H37V117.73H173V113.197Z" fill="url(#paint0_linear_18_4133)"/>
<path fill-rule="evenodd" clip-rule="evenodd" d="M162.468 80.3302L173 66.7302L159.169 80.3302H162.468ZM158.854 84.9969H154.424L153.407 85.9969H158.079L158.854 84.9969ZM153.587 91.7969H147.508L146.492 92.7969H152.813L153.587 91.7969ZM148.321 98.5969H140.593L139.576 99.5969H147.547L148.321 98.5969ZM143.055 105.397H133.678L132.661 106.397H142.281L143.055 105.397ZM137.789 112.197H126.763L125.746 113.197H137.015L137.789 112.197ZM133.504 117.73L114.633 142.097L129.696 158.276C132.503 156.347 135.898 155.213 139.56 155.199C149.258 155.161 157.151 162.992 157.189 172.69C157.197 174.859 156.812 176.937 156.101 178.858L164.5 178.364L170.733 176.097L167.333 179.497L160.533 182.33L154.014 182.832C150.852 187.34 145.623 190.296 139.697 190.319C129.999 190.357 122.107 182.525 122.069 172.827C122.055 169.381 123.035 166.163 124.74 163.444L124.267 162.497L106.7 152.297L93.1 139.264L83.4667 126.797L37 66.7302L105 133.597L121.136 117.73H133.504ZM102.733 152.297L94.2333 144.93L81.2 157.964L80.4899 158.319C77.6347 156.339 74.1648 155.184 70.4266 155.199C60.7285 155.237 52.8974 163.129 52.9353 172.827C52.9732 182.525 60.8658 190.357 70.5639 190.319C80.262 190.281 88.0931 182.388 88.0552 172.69C88.0419 169.272 87.0525 166.085 85.3522 163.393C85.475 163.046 85.6316 162.7 85.7333 162.497L86.8667 161.93L102.733 152.297ZM82.3333 173.263C82.3333 179.523 77.2592 184.597 71 184.597C64.7408 184.597 59.6667 179.523 59.6667 173.263C59.6667 167.004 64.7408 161.93 71 161.93C77.2592 161.93 82.3333 167.004 82.3333 173.263ZM140.133 184.597C146.393 184.597 151.467 179.523 151.467 173.263C151.467 167.004 146.393 161.93 140.133 161.93C133.874 161.93 128.8 167.004 128.8 173.263C128.8 179.523 133.874 184.597 140.133 184.597ZM107.267 140.963C107.267 142.528 105.998 143.797 104.433 143.797C102.869 143.797 101.6 142.528 101.6 140.963C101.6 139.399 102.869 138.13 104.433 138.13C105.998 138.13 107.267 139.399 107.267 140.963Z" fill="white"/>
<path d="M8.348 94.144C7.724 94.144 7.196 94.028 6.764 93.796C6.34 93.556 6.016 93.192 5.792 92.704C5.576 92.216 5.468 91.596 5.468 90.844C5.468 90.084 5.576 89.464 5.792 88.984C6.016 88.496 6.344 88.136 6.776 87.904C7.208 87.664 7.748 87.544 8.396 87.544C8.988 87.544 9.484 87.66 9.884 87.892C10.284 88.116 10.584 88.456 10.784 88.912C10.992 89.36 11.096 89.924 11.096 90.604V91.108H6.56C6.576 91.612 6.648 92.028 6.776 92.356C6.912 92.676 7.112 92.912 7.376 93.064C7.64 93.208 7.972 93.28 8.372 93.28C8.644 93.28 8.88 93.248 9.08 93.184C9.288 93.112 9.46 93.012 9.596 92.884C9.74 92.756 9.848 92.604 9.92 92.428C9.992 92.252 10.032 92.06 10.04 91.852H11.072C11.064 92.188 11 92.5 10.88 92.788C10.76 93.068 10.584 93.308 10.352 93.508C10.12 93.708 9.836 93.864 9.5 93.976C9.164 94.088 8.78 94.144 8.348 94.144ZM6.584 90.316H10.004C10.004 89.964 9.964 89.668 9.884 89.428C9.804 89.188 9.688 88.992 9.536 88.84C9.392 88.688 9.22 88.58 9.02 88.516C8.828 88.444 8.608 88.408 8.36 88.408C7.992 88.408 7.68 88.476 7.424 88.612C7.168 88.748 6.972 88.956 6.836 89.236C6.7 89.516 6.616 89.876 6.584 90.316ZM14.6102 94.144C14.1782 94.144 13.7982 94.1 13.4702 94.012C13.1422 93.924 12.8702 93.796 12.6542 93.628C12.4382 93.46 12.2742 93.26 12.1622 93.028C12.0502 92.796 11.9942 92.532 11.9942 92.236C11.9942 92.196 11.9942 92.16 11.9942 92.128C11.9942 92.088 11.9982 92.056 12.0062 92.032H13.0502C13.0422 92.064 13.0382 92.092 13.0382 92.116C13.0382 92.14 13.0382 92.164 13.0382 92.188C13.0462 92.468 13.1182 92.688 13.2542 92.848C13.3982 93.008 13.5942 93.12 13.8422 93.184C14.0902 93.248 14.3662 93.28 14.6702 93.28C14.9342 93.28 15.1782 93.248 15.4022 93.184C15.6262 93.112 15.8022 93.008 15.9302 92.872C16.0662 92.728 16.1342 92.548 16.1342 92.332C16.1342 92.068 16.0462 91.868 15.8702 91.732C15.7022 91.588 15.4782 91.476 15.1982 91.396C14.9182 91.316 14.6262 91.232 14.3222 91.144C14.0662 91.072 13.8102 90.992 13.5542 90.904C13.2982 90.816 13.0662 90.708 12.8582 90.58C12.6582 90.452 12.4942 90.288 12.3662 90.088C12.2462 89.88 12.1862 89.62 12.1862 89.308C12.1862 89.028 12.2422 88.78 12.3542 88.564C12.4742 88.348 12.6422 88.164 12.8582 88.012C13.0742 87.86 13.3342 87.748 13.6382 87.676C13.9502 87.596 14.2942 87.556 14.6702 87.556C15.0702 87.556 15.4182 87.6 15.7142 87.688C16.0182 87.776 16.2702 87.9 16.4702 88.06C16.6702 88.22 16.8182 88.404 16.9142 88.612C17.0102 88.812 17.0582 89.028 17.0582 89.26C17.0582 89.308 17.0582 89.356 17.0582 89.404C17.0582 89.444 17.0542 89.476 17.0462 89.5H16.0142V89.368C16.0142 89.208 15.9702 89.056 15.8822 88.912C15.8022 88.76 15.6582 88.64 15.4502 88.552C15.2502 88.456 14.9702 88.408 14.6102 88.408C14.3782 88.408 14.1782 88.428 14.0102 88.468C13.8422 88.5 13.7022 88.556 13.5902 88.636C13.4782 88.708 13.3942 88.796 13.3382 88.9C13.2822 88.996 13.2542 89.108 13.2542 89.236C13.2542 89.444 13.3222 89.604 13.4582 89.716C13.5942 89.828 13.7742 89.92 13.9982 89.992C14.2302 90.064 14.4782 90.144 14.7422 90.232C15.0222 90.312 15.3062 90.396 15.5942 90.484C15.8902 90.564 16.1582 90.668 16.3982 90.796C16.6462 90.924 16.8422 91.1 16.9862 91.324C17.1382 91.54 17.2142 91.828 17.2142 92.188C17.2142 92.524 17.1502 92.816 17.0222 93.064C16.8942 93.312 16.7102 93.516 16.4702 93.676C16.2382 93.836 15.9622 93.952 15.6422 94.024C15.3302 94.104 14.9862 94.144 14.6102 94.144ZM19.9954 94.144C19.6674 94.144 19.4114 94.084 19.2274 93.964C19.0434 93.836 18.9114 93.672 18.8314 93.472C18.7514 93.264 18.7114 93.044 18.7114 92.812V88.576H17.8954V87.688H18.7354L18.9274 85.924H19.7674V87.688H20.9554V88.576H19.7674V92.656C19.7674 92.856 19.8034 93.008 19.8754 93.112C19.9474 93.208 20.0834 93.256 20.2834 93.256H20.9554V93.952C20.8754 93.992 20.7794 94.024 20.6674 94.048C20.5554 94.072 20.4394 94.092 20.3194 94.108C20.2074 94.132 20.0994 94.144 19.9954 94.144ZM22.3219 94V92.74H23.4979V94H22.3219ZM180.666 94V93.652C180.666 93.316 180.73 93.008 180.858 92.728C180.994 92.44 181.17 92.18 181.386 91.948C181.61 91.708 181.862 91.48 182.142 91.264C182.422 91.048 182.706 90.836 182.994 90.628C183.386 90.356 183.746 90.084 184.074 89.812C184.41 89.54 184.678 89.248 184.878 88.936C185.078 88.616 185.178 88.26 185.178 87.868C185.178 87.62 185.118 87.396 184.998 87.196C184.886 86.988 184.714 86.824 184.482 86.704C184.25 86.584 183.954 86.524 183.594 86.524C183.17 86.524 182.83 86.596 182.574 86.74C182.318 86.884 182.13 87.076 182.01 87.316C181.898 87.556 181.842 87.82 181.842 88.108V88.6H180.798C180.79 88.56 180.782 88.5 180.774 88.42C180.766 88.332 180.762 88.232 180.762 88.12C180.762 87.528 180.894 87.052 181.158 86.692C181.422 86.324 181.774 86.056 182.214 85.888C182.654 85.712 183.13 85.624 183.642 85.624C184.098 85.624 184.49 85.688 184.818 85.816C185.146 85.936 185.418 86.104 185.634 86.32C185.85 86.536 186.01 86.784 186.114 87.064C186.218 87.336 186.27 87.624 186.27 87.928C186.27 88.304 186.202 88.648 186.066 88.96C185.938 89.272 185.754 89.564 185.514 89.836C185.282 90.1 185.006 90.356 184.686 90.604C184.374 90.852 184.034 91.104 183.666 91.36C183.41 91.528 183.158 91.708 182.91 91.9C182.662 92.084 182.45 92.272 182.274 92.464C182.098 92.656 181.986 92.84 181.938 93.016H186.318V94H180.666ZM190.319 94.144C189.871 94.144 189.471 94.08 189.119 93.952C188.767 93.816 188.467 93.588 188.219 93.268C187.971 92.94 187.783 92.504 187.655 91.96C187.527 91.408 187.463 90.716 187.463 89.884C187.463 89.052 187.527 88.364 187.655 87.82C187.783 87.268 187.971 86.832 188.219 86.512C188.467 86.184 188.767 85.956 189.119 85.828C189.471 85.692 189.871 85.624 190.319 85.624C190.767 85.624 191.163 85.692 191.507 85.828C191.859 85.956 192.159 86.184 192.407 86.512C192.655 86.832 192.843 87.268 192.971 87.82C193.099 88.364 193.163 89.052 193.163 89.884C193.163 90.716 193.099 91.408 192.971 91.96C192.843 92.504 192.655 92.94 192.407 93.268C192.159 93.588 191.859 93.816 191.507 93.952C191.163 94.08 190.767 94.144 190.319 94.144ZM190.319 93.256C190.775 93.256 191.127 93.14 191.375 92.908C191.631 92.676 191.807 92.332 191.903 91.876C192.007 91.42 192.059 90.852 192.059 90.172V89.62C192.059 88.932 192.007 88.36 191.903 87.904C191.807 87.44 191.631 87.092 191.375 86.86C191.127 86.628 190.775 86.512 190.319 86.512C189.863 86.512 189.507 86.628 189.251 86.86C188.995 87.092 188.815 87.436 188.711 87.892C188.615 88.348 188.567 88.92 188.567 89.608V90.148C188.567 90.828 188.615 91.4 188.711 91.864C188.815 92.328 188.995 92.676 189.251 92.908C189.507 93.14 189.863 93.256 190.319 93.256ZM194.354 94V93.652C194.354 93.316 194.418 93.008 194.546 92.728C194.682 92.44 194.858 92.18 195.074 91.948C195.298 91.708 195.55 91.48 195.83 91.264C196.11 91.048 196.394 90.836 196.682 90.628C197.074 90.356 197.434 90.084 197.762 89.812C198.098 89.54 198.366 89.248 198.566 88.936C198.766 88.616 198.866 88.26 198.866 87.868C198.866 87.62 198.806 87.396 198.686 87.196C198.574 86.988 198.402 86.824 198.17 86.704C197.938 86.584 197.642 86.524 197.282 86.524C196.858 86.524 196.518 86.596 196.262 86.74C196.006 86.884 195.818 87.076 195.698 87.316C195.586 87.556 195.53 87.82 195.53 88.108V88.6H194.486C194.478 88.56 194.47 88.5 194.462 88.42C194.454 88.332 194.45 88.232 194.45 88.12C194.45 87.528 194.582 87.052 194.846 86.692C195.11 86.324 195.462 86.056 195.902 85.888C196.342 85.712 196.818 85.624 197.33 85.624C197.786 85.624 198.178 85.688 198.506 85.816C198.834 85.936 199.106 86.104 199.322 86.32C199.538 86.536 199.698 86.784 199.802 87.064C199.906 87.336 199.958 87.624 199.958 87.928C199.958 88.304 199.89 88.648 199.754 88.96C199.626 89.272 199.442 89.564 199.202 89.836C198.97 90.1 198.694 90.356 198.374 90.604C198.062 90.852 197.722 91.104 197.354 91.36C197.098 91.528 196.846 91.708 196.598 91.9C196.35 92.084 196.138 92.272 195.962 92.464C195.786 92.656 195.674 92.84 195.626 93.016H200.006V94H194.354ZM204.727 94V91.984H200.899V91.096C201.235 90.52 201.539 89.94 201.811 89.356C202.091 88.772 202.339 88.172 202.555 87.556C202.779 86.94 202.963 86.296 203.107 85.624H204.235C204.131 86.064 204.003 86.516 203.851 86.98C203.699 87.436 203.531 87.88 203.347 88.312C203.163 88.744 202.979 89.148 202.795 89.524C202.619 89.9 202.451 90.224 202.291 90.496C202.139 90.768 202.015 90.968 201.919 91.096H204.727V88.48C204.775 88.352 204.823 88.22 204.871 88.084C204.927 87.94 204.979 87.796 205.027 87.652C205.075 87.5 205.119 87.36 205.159 87.232C205.199 87.096 205.231 86.968 205.255 86.848H205.783V91.096H206.875V91.984H205.783V94H204.727Z" fill="white"/>
<path d="M29.1397 62.923L22.2008 57.6299L24.0513 55.204C24.4201 54.7206 24.8077 54.3857 25.2144 54.1992C25.6188 54.011 26.0196 53.947 26.4168 54.007C26.8118 54.0654 27.1787 54.2238 27.5176 54.4822C27.8157 54.7096 28.0214 54.9505 28.1347 55.2049C28.2497 55.457 28.2982 55.7119 28.2802 55.9697C28.2639 56.2253 28.207 56.4731 28.1096 56.7132L28.1774 56.7649C28.3529 56.563 28.5903 56.4064 28.8895 56.2952C29.1887 56.184 29.5199 56.1526 29.8832 56.201C30.2464 56.2494 30.611 56.4132 30.9769 56.6923C31.3248 56.9576 31.5773 57.2753 31.7345 57.6454C31.8917 58.0154 31.9216 58.433 31.824 58.8981C31.7265 59.3633 31.4692 59.8691 31.0523 60.4158L29.1397 62.923ZM29.0353 61.5141L30.3069 59.8472C30.7256 59.2983 30.9166 58.8277 30.88 58.4353C30.8429 58.039 30.6719 57.7245 30.367 57.4919C30.1321 57.3127 29.8696 57.2072 29.5795 57.1752C29.2871 57.1416 28.9967 57.1898 28.7081 57.3199C28.4173 57.4482 28.1564 57.6637 27.9255 57.9663L26.6229 59.674L29.0353 61.5141ZM25.8911 59.1157L27.08 57.5572C27.273 57.3042 27.3973 57.0381 27.453 56.759C27.5104 56.4777 27.4944 56.2082 27.405 55.9507C27.3174 55.6908 27.1516 55.4679 26.9076 55.2818C26.6027 55.0492 26.2631 54.9581 25.8888 55.0084C25.5122 55.0571 25.1482 55.3118 24.7967 55.7726L23.5872 57.3582L25.8911 59.1157Z" fill="white"/>
<path d="M46.2091 39.0902C46.7925 39.8022 47.1681 40.5228 47.3359 41.2521C47.5037 41.9814 47.4787 42.6703 47.2609 43.3189C47.0431 43.9674 46.6463 44.5276 46.0706 44.9993C45.4948 45.4711 44.8676 45.75 44.1888 45.836C43.5101 45.922 42.8297 45.8111 42.1477 45.5031C41.4656 45.1952 40.8329 44.6852 40.2496 43.9732C39.6662 43.2612 39.2906 42.5406 39.1228 41.8114C38.955 41.0821 38.98 40.3932 39.1978 39.7446C39.4156 39.096 39.8124 38.5358 40.3881 38.0641C40.9639 37.5924 41.5911 37.3135 42.2699 37.2275C42.9486 37.1414 43.629 37.2524 44.311 37.5603C44.9931 37.8683 45.6258 38.3782 46.2091 39.0902ZM45.418 39.7384C44.9391 39.1539 44.4371 38.7407 43.912 38.4988C43.3892 38.2551 42.8772 38.1659 42.3761 38.2312C41.8772 38.2947 41.4234 38.4939 41.0147 38.8288C40.606 39.1637 40.3203 39.5704 40.1578 40.0488C39.9974 40.5255 39.9842 41.045 40.1181 41.6074C40.2542 42.168 40.5617 42.7405 41.0407 43.325C41.5196 43.9096 42.0205 44.3237 42.5434 44.5674C43.0685 44.8093 43.5804 44.8985 44.0793 44.8349C44.5804 44.7696 45.0353 44.5695 45.444 44.2346C45.8527 43.8997 46.1373 43.494 46.2976 43.0173C46.4602 42.5389 46.4734 42.0194 46.3373 41.4588C46.2034 40.8964 45.897 40.3229 45.418 39.7384Z" fill="white"/>
<path d="M62.3507 33.9563L58.5254 26.112L61.2679 24.7747C61.8143 24.5082 62.3111 24.3829 62.7581 24.3988C63.204 24.4121 63.5909 24.5347 63.9189 24.7667C64.2457 24.9961 64.5025 25.3023 64.6893 25.6853C64.8537 26.0224 64.9294 26.33 64.9165 26.6081C64.9061 26.885 64.835 27.1346 64.7032 27.3569C64.574 27.578 64.4119 27.7739 64.2171 27.9448L64.2545 28.0214C64.502 27.9197 64.7844 27.8862 65.1017 27.9212C65.4189 27.9561 65.729 28.0767 66.0319 28.283C66.3348 28.4893 66.5871 28.7992 66.7888 29.2129C66.9806 29.6061 67.0637 30.0034 67.0381 30.4046C67.0125 30.8059 66.8518 31.1924 66.5559 31.5643C66.2599 31.9362 65.803 32.2728 65.1851 32.5741L62.3507 33.9563ZM62.8897 32.6504L64.7741 31.7315C65.3946 31.4289 65.7766 31.0941 65.92 30.727C66.0647 30.3562 66.053 29.9984 65.8849 29.6537C65.7554 29.3882 65.5682 29.176 65.3233 29.0173C65.0771 28.856 64.7959 28.7688 64.4797 28.7555C64.1622 28.7396 63.8324 28.8151 63.4902 28.982L61.5598 29.9233L62.8897 32.6504ZM61.1564 29.096L62.9182 28.2368C63.2042 28.0974 63.4347 27.9154 63.6098 27.691C63.7873 27.4653 63.894 27.2174 63.9297 26.9471C63.968 26.6756 63.9199 26.4019 63.7854 26.1261C63.6173 25.7814 63.3547 25.5476 62.9976 25.4246C62.6393 25.2991 62.1997 25.3633 61.6788 25.6173L59.8862 26.4915L61.1564 29.096Z" fill="white"/>
<path d="M86.2353 16.311L87.2664 16.0794L88.5331 21.7172C88.6639 22.2993 88.6434 22.8498 88.4718 23.3688C88.3023 23.8845 87.999 24.3297 87.5621 24.7045C87.1244 25.0765 86.5716 25.3375 85.9036 25.4876C85.2356 25.6377 84.6243 25.6382 84.0696 25.4892C83.5143 25.3373 83.0483 25.0649 82.6718 24.672C82.2974 24.2757 82.0448 23.7865 81.914 23.2044L80.6473 17.5666L81.6784 17.3349L82.9264 22.8896C83.0199 23.3054 83.1945 23.6548 83.4503 23.938C83.7055 24.2185 84.023 24.4135 84.4029 24.5233C84.7849 24.6296 85.2129 24.6295 85.6869 24.523C86.1609 24.4165 86.5478 24.2335 86.8476 23.974C87.1468 23.7117 87.3504 23.3995 87.4583 23.0375C87.5684 22.6721 87.5767 22.2815 87.4833 21.8657L86.2353 16.311Z" fill="white"/>
<path d="M105.029 22.976L105.131 14.2493L108.08 14.2838C108.762 14.2918 109.32 14.4148 109.755 14.6529C110.19 14.8881 110.51 15.2086 110.715 15.6145C110.921 16.0203 111.021 16.4803 111.014 16.9945C111.008 17.5087 110.898 17.9634 110.683 18.3586C110.468 18.7538 110.142 19.0626 109.705 19.2847C109.268 19.5041 108.711 19.6098 108.035 19.6019L105.649 19.5739L105.66 18.6195L108.012 18.647C108.478 18.6524 108.854 18.5886 109.139 18.4556C109.428 18.3226 109.637 18.1319 109.768 17.8834C109.902 17.6321 109.971 17.3317 109.975 16.9823C109.979 16.6329 109.917 16.3268 109.79 16.0639C109.662 15.801 109.455 15.5969 109.17 15.4515C108.885 15.3033 108.507 15.2264 108.035 15.2209L106.177 15.1991L106.086 22.9884L105.029 22.976ZM109.183 19.1039L111.285 23.0492L110.057 23.0348L107.99 19.0899L109.183 19.1039Z" fill="white"/>
<path d="M132.187 17.4016L130.075 25.8696L129.049 25.6138L131.161 17.1459L132.187 17.4016Z" fill="white"/>
<path d="M150.045 33.3248L147.652 32.088L151.66 24.3354L154.158 25.627C154.91 26.0158 155.474 26.5036 155.848 27.0906C156.224 27.6751 156.405 28.33 156.392 29.0553C156.379 29.7781 156.166 30.5408 155.751 31.3433C155.333 32.1509 154.83 32.7718 154.241 33.206C153.653 33.6377 153.004 33.8678 152.292 33.8964C151.581 33.9224 150.832 33.7318 150.045 33.3248ZM149.022 31.7406L150.415 32.4607C151.056 32.7921 151.651 32.943 152.2 32.9136C152.749 32.8841 153.246 32.6945 153.689 32.3447C154.132 31.9949 154.516 31.5046 154.842 30.8736C155.166 30.2478 155.342 29.6562 155.371 29.0987C155.402 28.5388 155.277 28.0327 154.995 27.5804C154.716 27.1256 154.273 26.7416 153.667 26.4285L152.168 25.6535L149.022 31.7406Z" fill="white"/>
<path d="M166.641 43.9628L167.141 43.381L175.286 41.1204L171.679 38.0211L172.29 37.31L176.853 41.2314L176.354 41.8132L168.209 44.0737L171.816 47.173L171.205 47.8841L166.641 43.9628Z" fill="white"/>
<path d="M182.39 59.9941L189.451 54.8648L192.546 59.1261L191.788 59.6771L189.313 56.2708L186.928 58.004L189.242 61.1896L188.483 61.7406L186.169 58.555L183.77 60.2982L186.284 63.7596L185.526 64.3106L182.39 59.9941Z" fill="white"/>
<path d="M203.5 122.915V121.807L212.227 125.011V126.102L203.5 129.307V128.199L210.847 125.591V125.523L203.5 122.915ZM206.909 123.324V127.79H205.972V123.324H206.909Z" fill="white"/>
<path d="M202.945 136.402L209.439 137.223L209.317 138.187L208.336 138.063L208.328 138.13C208.634 138.289 208.868 138.536 209.029 138.872C209.19 139.207 209.245 139.569 209.196 139.958C209.187 140.031 209.174 140.123 209.157 140.232C209.141 140.342 209.126 140.425 209.113 140.48L208.099 140.352C208.111 140.319 208.134 140.243 208.166 140.124C208.201 140.008 208.226 139.884 208.243 139.752C208.283 139.436 208.252 139.146 208.151 138.881C208.053 138.62 207.897 138.402 207.684 138.229C207.473 138.06 207.221 137.956 206.928 137.919L202.819 137.4L202.945 136.402Z" fill="white"/>
<path d="M206.524 152.605L205.699 152.393L206.543 149.108L207.368 149.319L206.524 152.605ZM208.641 150.667L208.391 151.641L202.348 150.09C202.073 150.019 201.857 150.006 201.699 150.05C201.542 150.098 201.425 150.18 201.346 150.294C201.268 150.412 201.211 150.543 201.175 150.686C201.147 150.793 201.13 150.883 201.123 150.954C201.119 151.027 201.116 151.084 201.114 151.128L200.188 151.101C200.18 151.029 200.179 150.93 200.185 150.806C200.188 150.68 200.212 150.527 200.259 150.345C200.33 150.07 200.458 149.815 200.644 149.582C200.83 149.351 201.066 149.18 201.352 149.068C201.638 148.96 201.966 148.953 202.334 149.048L208.641 150.667Z" fill="white"/>
<path d="M202.388 164.807L201.596 164.493L202.894 161.213L203.687 161.526L202.388 164.807ZM197.212 160.099L204.138 162.842C204.486 162.98 204.745 163.176 204.912 163.432C205.08 163.688 205.17 163.97 205.183 164.277C205.195 164.585 205.144 164.884 205.029 165.174C204.938 165.404 204.845 165.584 204.751 165.715C204.656 165.846 204.579 165.94 204.519 165.999L203.818 165.41C203.852 165.368 203.898 165.31 203.956 165.235C204.012 165.163 204.066 165.059 204.12 164.924C204.242 164.615 204.253 164.361 204.151 164.162C204.049 163.966 203.847 163.808 203.546 163.689L196.842 161.034L197.212 160.099Z" fill="white"/>
<path d="M193.288 174.651L196.679 176.515L196.194 177.396L190.458 174.243L190.943 173.362L191.914 173.896L191.947 173.836C191.729 173.541 191.596 173.196 191.548 172.8C191.503 172.405 191.599 171.991 191.837 171.558C192.034 171.2 192.288 170.924 192.598 170.732C192.911 170.54 193.27 170.453 193.676 170.469C194.085 170.486 194.533 170.629 195.021 170.897L198.666 172.9L198.181 173.782L194.596 171.811C194.178 171.581 193.78 171.515 193.403 171.612C193.024 171.711 192.734 171.944 192.533 172.31C192.412 172.529 192.346 172.783 192.333 173.071C192.319 173.362 192.386 173.648 192.532 173.929C192.678 174.213 192.929 174.454 193.288 174.651Z" fill="white"/>
<path d="M192.071 187.608L185.011 182.478L185.602 181.665L192.662 186.794L192.071 187.608Z" fill="white"/>
<path d="M169.941 206.489L170.755 205.815C170.997 206.01 171.251 206.146 171.518 206.223C171.783 206.303 172.051 206.332 172.321 206.311C172.591 206.294 172.854 206.232 173.111 206.123C173.367 206.014 173.607 205.867 173.83 205.682C174.238 205.345 174.521 204.937 174.682 204.458C174.84 203.981 174.85 203.461 174.714 202.899C174.575 202.339 174.265 201.768 173.783 201.186C173.302 200.604 172.799 200.192 172.275 199.951C171.748 199.711 171.236 199.625 170.738 199.691C170.237 199.758 169.783 199.961 169.376 200.297C169.152 200.482 168.963 200.69 168.808 200.922C168.653 201.153 168.541 201.399 168.472 201.659C168.403 201.922 168.382 202.192 168.411 202.467C168.439 202.746 168.525 203.022 168.669 203.293L167.854 203.967C167.631 203.573 167.489 203.173 167.426 202.767C167.363 202.362 167.374 201.964 167.457 201.575C167.542 201.187 167.694 200.82 167.912 200.474C168.128 200.129 168.406 199.816 168.745 199.536C169.319 199.061 169.945 198.779 170.623 198.69C171.302 198.601 171.982 198.709 172.666 199.013C173.349 199.318 173.985 199.825 174.571 200.534C175.158 201.243 175.537 201.962 175.708 202.691C175.879 203.419 175.858 204.108 175.643 204.758C175.428 205.407 175.034 205.969 174.461 206.444C174.121 206.725 173.762 206.939 173.383 207.087C173.001 207.236 172.612 207.315 172.213 207.324C171.817 207.335 171.425 207.272 171.039 207.134C170.654 206.999 170.288 206.784 169.941 206.489Z" fill="white"/>
<path d="M159.301 209.721L161.374 212.988L160.525 213.527L157.017 208L157.867 207.461L158.46 208.397L158.518 208.36C158.469 207.997 158.519 207.631 158.668 207.261C158.818 206.893 159.102 206.576 159.519 206.312C159.865 206.092 160.22 205.973 160.584 205.954C160.95 205.937 161.307 206.033 161.656 206.243C162.006 206.455 162.33 206.796 162.628 207.266L164.857 210.778L164.008 211.316L161.816 207.862C161.56 207.459 161.243 207.21 160.865 207.113C160.485 207.017 160.119 207.082 159.766 207.306C159.555 207.439 159.375 207.63 159.225 207.876C159.073 208.124 158.993 208.407 158.986 208.724C158.976 209.043 159.081 209.375 159.301 209.721Z" fill="white"/>
<path d="M150.302 218.873L149.94 218.102L153.009 216.657L153.372 217.429L150.302 218.873ZM153.145 219.268L152.235 219.697L149.579 214.052C149.458 213.795 149.33 213.619 149.195 213.526C149.058 213.436 148.921 213.397 148.782 213.409C148.642 213.425 148.505 213.464 148.371 213.527C148.271 213.575 148.191 213.618 148.132 213.659C148.073 213.702 148.027 213.736 147.992 213.762L147.422 213.032C147.473 212.98 147.548 212.916 147.648 212.841C147.746 212.763 147.88 212.685 148.05 212.605C148.307 212.484 148.585 212.42 148.884 212.415C149.18 212.411 149.462 212.483 149.731 212.633C149.996 212.785 150.21 213.032 150.372 213.377L153.145 219.268Z" fill="white"/>
<path d="M137.125 222.292L137.905 221.77C138.005 221.896 138.13 222.009 138.28 222.11C138.427 222.214 138.604 222.282 138.812 222.313C139.019 222.345 139.262 222.315 139.54 222.224C139.921 222.101 140.21 221.91 140.407 221.652C140.602 221.397 140.656 221.136 140.569 220.869C140.492 220.631 140.344 220.471 140.127 220.389C139.909 220.308 139.602 220.281 139.204 220.308L138.207 220.382C137.606 220.427 137.124 220.355 136.761 220.166C136.398 219.979 136.147 219.668 136.005 219.233C135.889 218.876 135.888 218.524 136.002 218.176C136.114 217.83 136.325 217.516 136.638 217.235C136.95 216.955 137.347 216.736 137.831 216.579C138.466 216.372 139.036 216.339 139.542 216.48C140.048 216.62 140.442 216.937 140.725 217.431L139.891 217.953C139.695 217.646 139.45 217.447 139.155 217.358C138.858 217.27 138.513 217.289 138.121 217.416C137.675 217.561 137.352 217.771 137.152 218.045C136.949 218.323 136.891 218.596 136.978 218.863C137.048 219.079 137.183 219.236 137.382 219.332C137.581 219.432 137.85 219.467 138.187 219.438L139.303 219.344C139.917 219.294 140.404 219.367 140.764 219.564C141.122 219.765 141.37 220.08 141.51 220.509C141.624 220.86 141.626 221.203 141.517 221.537C141.405 221.873 141.202 222.173 140.909 222.438C140.613 222.705 140.246 222.909 139.809 223.051C139.193 223.251 138.665 223.273 138.226 223.117C137.784 222.962 137.417 222.687 137.125 222.292Z" fill="white"/>
<path d="M125.705 221.059L125.686 220.594C125.673 220.267 125.681 219.913 125.709 219.531C125.735 219.151 125.769 218.79 125.811 218.449C125.853 218.109 125.889 217.837 125.92 217.635L126.673 217.491C126.671 217.676 126.669 217.921 126.666 218.225C126.663 218.53 126.667 218.869 126.678 219.243C126.685 219.614 126.705 219.992 126.738 220.376L126.777 220.855L125.705 221.059Z" fill="white"/>
<path d="M102.752 221.359L105.44 221.528L104.892 230.238L102.085 230.061C101.24 230.008 100.528 229.788 99.9489 229.402C99.3695 229.018 98.9401 228.491 98.6606 227.822C98.3809 227.155 98.2694 226.371 98.3261 225.47C98.3832 224.562 98.5939 223.791 98.9584 223.157C99.3226 222.525 99.8248 222.053 100.465 221.74C101.105 221.43 101.867 221.303 102.752 221.359ZM104.326 222.397L102.761 222.299C102.041 222.253 101.435 222.355 100.945 222.603C100.454 222.851 100.076 223.224 99.8109 223.723C99.5461 224.221 99.3914 224.825 99.3468 225.534C99.3026 226.237 99.3793 226.849 99.577 227.371C99.7746 227.896 100.093 228.309 100.532 228.61C100.972 228.914 101.531 229.087 102.212 229.13L103.896 229.236L104.326 222.397Z" fill="white"/>
<path d="M89.9688 219.644C90.5883 219.762 91.0966 220.001 91.4937 220.36C91.8875 220.721 92.1587 221.172 92.3072 221.712C92.4525 222.255 92.4623 222.855 92.3366 223.514C92.211 224.173 91.9803 224.73 91.6445 225.187C91.3053 225.645 90.8926 225.974 90.4063 226.174C89.9167 226.375 89.3816 226.421 88.8012 226.31C88.4663 226.246 88.1463 226.127 87.8411 225.953C87.5359 225.779 87.2733 225.541 87.0533 225.239C86.8328 224.94 86.6821 224.57 86.6013 224.129C86.5205 223.689 86.5373 223.168 86.6518 222.568L86.7316 222.15L91.6877 223.095L91.5248 223.949L87.5733 223.195C87.5041 223.558 87.5149 223.896 87.6058 224.208C87.6938 224.52 87.8546 224.783 88.0883 224.998C88.3192 225.213 88.6133 225.355 88.9705 225.423C89.364 225.498 89.723 225.465 90.0477 225.324C90.3691 225.186 90.6361 224.977 90.8487 224.696C91.0612 224.416 91.2013 224.098 91.2689 223.744L91.3775 223.175C91.4701 222.689 91.4649 222.262 91.3619 221.892C91.2556 221.525 91.0685 221.224 90.8006 220.991C90.5323 220.761 90.1985 220.607 89.7995 220.531C89.54 220.482 89.2986 220.473 89.0755 220.506C88.849 220.541 88.645 220.617 88.4633 220.736C88.281 220.857 88.1268 221.022 88.0005 221.229L87.0972 220.779C87.2594 220.475 87.4825 220.222 87.7666 220.022C88.0501 219.824 88.3793 219.69 88.7542 219.62C89.1286 219.553 89.5334 219.561 89.9688 219.644Z" fill="white"/>
<path d="M75.1964 222.638L75.4597 221.828L78.8154 222.918L78.5521 223.729L75.1964 222.638ZM79.5696 217.177L77.2678 224.261C77.1519 224.618 76.9716 224.888 76.7268 225.071C76.4821 225.255 76.2066 225.362 75.9005 225.394C75.5944 225.426 75.2927 225.394 74.9955 225.297C74.7605 225.221 74.5748 225.14 74.4385 225.054C74.3022 224.967 74.2028 224.896 74.1404 224.84L74.6846 224.103C74.728 224.135 74.7889 224.177 74.8675 224.23C74.9433 224.281 75.0502 224.329 75.188 224.374C75.5041 224.477 75.7583 224.471 75.9506 224.357C76.1402 224.243 76.285 224.031 76.3851 223.723L78.6132 216.866L79.5696 217.177Z" fill="white"/>
<path d="M67.8624 212.658L65.0755 218.58L64.1656 218.152L66.9525 212.229L67.8624 212.658ZM64.1483 219.349C64.3257 219.433 64.4502 219.565 64.5219 219.747C64.591 219.927 64.5856 220.102 64.5058 220.271C64.426 220.441 64.2947 220.556 64.1118 220.618C63.9265 220.678 63.7451 220.667 63.5677 220.583C63.3904 220.5 63.2671 220.368 63.198 220.188C63.1263 220.007 63.1304 219.831 63.2103 219.662C63.2901 219.492 63.4227 219.377 63.6081 219.317C63.7909 219.255 63.971 219.266 64.1483 219.349Z" fill="white"/>
<path d="M56.4698 211.069L58.5796 207.745L59.4287 208.283L55.9215 213.81L55.1011 213.289L55.6491 212.426L55.5772 212.38C55.2695 212.579 54.9298 212.679 54.5578 212.682C54.1844 212.687 53.789 212.558 53.3716 212.293C52.9974 212.055 52.7187 211.771 52.5355 211.439C52.3507 211.11 52.2786 210.741 52.3191 210.333C52.358 209.927 52.5266 209.489 52.825 209.019L55.0535 205.507L55.9027 206.046L53.7107 209.5C53.4351 209.934 53.3332 210.344 53.405 210.729C53.4752 211.117 53.707 211.436 54.1003 211.685C54.3714 211.857 54.6509 211.952 54.939 211.97C55.2247 211.987 55.5002 211.921 55.7657 211.773C56.0311 211.625 56.2658 211.391 56.4698 211.069Z" fill="white"/>
<path d="M47.086 199.374C47.5719 199.776 47.9024 200.23 48.0773 200.736C48.2483 201.242 48.2687 201.768 48.1386 202.313C48.0046 202.858 47.7238 203.389 47.2965 203.906C46.8691 204.423 46.3983 204.8 45.8841 205.038C45.3659 205.277 44.8457 205.367 44.3235 205.307C43.7973 205.248 43.3066 205.03 42.8513 204.653C42.5886 204.436 42.3654 204.177 42.1818 203.878C41.9981 203.579 41.8827 203.243 41.8355 202.873C41.7865 202.504 41.8328 202.107 41.9742 201.682C42.1156 201.257 42.381 200.809 42.7703 200.339L43.042 200.01L46.9296 203.226L46.3754 203.896L43.2759 201.332C43.0405 201.617 42.8873 201.918 42.8164 202.235C42.7434 202.551 42.7574 202.859 42.8585 203.16C42.9574 203.46 43.147 203.725 43.4271 203.957C43.7358 204.212 44.0662 204.357 44.4184 204.39C44.7667 204.424 45.1015 204.369 45.4229 204.225C45.7443 204.082 46.02 203.871 46.2499 203.593L46.6194 203.147C46.9344 202.766 47.1359 202.389 47.2237 202.015C47.3074 201.642 47.2882 201.289 47.1658 200.955C47.0417 200.624 46.8231 200.329 46.5101 200.07C46.3065 199.901 46.0991 199.778 45.8879 199.699C45.6726 199.62 45.4568 199.589 45.2404 199.606C45.0223 199.624 44.8079 199.694 44.5974 199.815L44.0226 198.985C44.3114 198.797 44.6286 198.683 44.974 198.644C45.3176 198.608 45.6706 198.649 46.0329 198.768C46.3935 198.889 46.7445 199.091 47.086 199.374Z" fill="white"/>
<path d="M38.8991 191.724C39.2725 192.122 39.5017 192.567 39.5867 193.06C39.6696 193.555 39.6075 194.062 39.4002 194.58C39.191 195.1 38.8337 195.597 38.3284 196.072C37.8272 196.542 37.3116 196.865 36.7815 197.039C36.2515 197.213 35.7421 197.241 35.2534 197.124C34.7647 197.006 34.3317 196.746 33.9545 196.344C33.6628 196.033 33.4841 195.739 33.4184 195.462C33.3488 195.184 33.3344 194.937 33.3755 194.719C33.4125 194.501 33.4471 194.326 33.4794 194.195L33.421 194.133L31.0726 196.338L30.3841 195.605L36.7461 189.631L37.4112 190.339L36.678 191.027L36.7597 191.114C36.8973 191.086 37.079 191.06 37.3049 191.035C37.5287 191.012 37.7789 191.044 38.0555 191.131C38.3301 191.22 38.6113 191.418 38.8991 191.724ZM38.1472 192.243C37.871 191.949 37.561 191.773 37.2172 191.714C36.8713 191.656 36.5121 191.703 36.1395 191.854C35.7649 192.008 35.3974 192.253 35.0371 192.592C34.6809 192.926 34.4178 193.271 34.2479 193.625C34.0759 193.981 34.0107 194.331 34.0522 194.674C34.0916 195.019 34.2513 195.34 34.5313 195.639C34.8231 195.949 35.1459 196.133 35.4998 196.191C35.8497 196.248 36.209 196.201 36.5775 196.05C36.942 195.898 37.292 195.665 37.6275 195.35C37.9671 195.031 38.2271 194.69 38.4073 194.325C38.5836 193.961 38.6573 193.6 38.6283 193.241C38.5954 192.882 38.435 192.55 38.1472 192.243Z" fill="white"/>
<path d="M25.4897 174.149L17.8419 178.353L17.3328 177.427L24.159 173.674L22.2047 170.119L23.0262 169.667L25.4897 174.149Z" fill="white"/>
<path d="M19.4197 161.695L13.3339 164.104L12.9636 163.169L19.0495 160.76L19.4197 161.695ZM12.1313 164.03C12.2035 164.213 12.2036 164.394 12.1318 164.576C12.0589 164.754 11.9353 164.878 11.7609 164.947C11.5866 165.016 11.4117 165.01 11.2363 164.93C11.0599 164.847 10.9356 164.715 10.8634 164.532C10.7913 164.35 10.7916 164.17 10.8645 163.991C10.9364 163.81 11.0595 163.685 11.2338 163.616C11.4082 163.547 11.5835 163.554 11.76 163.637C11.9354 163.717 12.0592 163.848 12.1313 164.03Z" fill="white"/>
<path d="M12.2023 152.738L16.0161 151.759L16.2662 152.733L9.92634 154.36L9.68472 153.419L10.6753 153.165L10.6541 153.083C10.294 153.017 9.97743 152.857 9.70435 152.605C9.42852 152.353 9.22913 151.988 9.1062 151.509C8.99599 151.08 8.9876 150.681 9.08105 150.314C9.17174 149.948 9.37161 149.63 9.68065 149.36C9.98694 149.09 10.4097 148.886 10.9491 148.748L14.9775 147.714L15.2276 148.688L11.2652 149.705C10.7672 149.833 10.4124 150.062 10.2009 150.392C9.98662 150.723 9.93742 151.114 10.0533 151.565C10.1331 151.876 10.2719 152.137 10.4696 152.347C10.6666 152.554 10.9125 152.695 11.2071 152.769C11.5018 152.843 11.8335 152.833 12.2023 152.738Z" fill="white"/>
<path d="M13.3677 137.789C13.4467 138.415 13.3768 138.972 13.1579 139.46C12.9358 139.947 12.5909 140.344 12.123 140.652C11.6519 140.958 11.0838 141.153 10.4186 141.237C9.75343 141.321 9.15187 141.274 8.61392 141.095C8.07279 140.915 7.6323 140.624 7.29244 140.223C6.9494 139.819 6.74086 139.325 6.6668 138.738C6.62407 138.4 6.63825 138.059 6.70933 137.715C6.78041 137.371 6.92569 137.048 7.14517 136.745C7.36184 136.443 7.66719 136.185 8.06121 135.972C8.45524 135.759 8.95524 135.614 9.56122 135.538L9.98399 135.485L10.6164 140.49L9.75389 140.599L9.24971 136.608C8.88331 136.654 8.56562 136.769 8.29664 136.952C8.02731 137.132 7.82642 137.366 7.69395 137.655C7.56113 137.941 7.51751 138.264 7.56308 138.625C7.61329 139.023 7.75537 139.354 7.98934 139.619C8.22014 139.882 8.50175 140.072 8.83419 140.187C9.16663 140.303 9.51182 140.338 9.86977 140.292L10.4447 140.22C10.9352 140.158 11.3402 140.021 11.6599 139.809C11.9764 139.594 12.2042 139.323 12.3433 138.996C12.4796 138.67 12.5223 138.305 12.4714 137.902C12.4383 137.64 12.3717 137.408 12.2717 137.206C12.1686 137.001 12.0325 136.831 11.8635 136.695C11.6918 136.559 11.4878 136.463 11.2516 136.407L11.4004 135.409C11.7402 135.469 12.0492 135.603 12.3275 135.811C12.603 136.02 12.832 136.292 13.0147 136.626C13.1944 136.962 13.3121 137.349 13.3677 137.789Z" fill="white"/>
<path d="M7.42045 123.943L7.67614 124.847C7.52557 124.903 7.37926 124.987 7.23722 125.098C7.09233 125.206 6.97301 125.354 6.87926 125.541C6.78551 125.729 6.73864 125.969 6.73864 126.261C6.73864 126.662 6.83097 126.996 7.01562 127.263C7.19744 127.527 7.42898 127.659 7.71023 127.659C7.96023 127.659 8.15767 127.568 8.30256 127.386C8.44744 127.205 8.56818 126.92 8.66477 126.534L8.90341 125.562C9.04545 124.977 9.26278 124.541 9.5554 124.254C9.84517 123.967 10.2187 123.824 10.6761 123.824C11.0511 123.824 11.3864 123.932 11.6818 124.148C11.9773 124.361 12.2102 124.659 12.3807 125.043C12.5511 125.426 12.6364 125.872 12.6364 126.381C12.6364 127.048 12.4915 127.601 12.2017 128.038C11.9119 128.476 11.4886 128.753 10.9318 128.869L10.6932 127.915C11.0455 127.824 11.3097 127.652 11.4858 127.399C11.6619 127.143 11.75 126.81 11.75 126.398C11.75 125.929 11.6506 125.557 11.4517 125.281C11.25 125.003 11.0085 124.864 10.7273 124.864C10.5 124.864 10.3097 124.943 10.1562 125.102C10 125.261 9.88352 125.506 9.80682 125.835L9.55114 126.926C9.40909 127.526 9.18892 127.966 8.89062 128.247C8.58949 128.526 8.21307 128.665 7.76136 128.665C7.39205 128.665 7.06534 128.561 6.78125 128.354C6.49716 128.143 6.27415 127.858 6.11222 127.497C5.95028 127.134 5.86932 126.722 5.86932 126.261C5.86932 125.614 6.01136 125.105 6.29545 124.736C6.57955 124.364 6.95455 124.099 7.42045 123.943Z" fill="white"/>
<defs>
<linearGradient id="paint0_linear_18_4133" x1="37" y1="99.0301" x2="173" y2="99.0301" gradientUnits="userSpaceOnUse">
<stop/>
<stop offset="0.25" stop-color="#AA896A"/>
</linearGradient>
</defs>
</svg>
