<svg width="271" height="209" viewBox="0 0 271 209" fill="none" xmlns="http://www.w3.org/2000/svg">
<path fill-rule="evenodd" clip-rule="evenodd" d="M196 12H76V16H196V12ZM196 17H76V22H196V17ZM76 28V23H196V28H76ZM196 29H76V34H196V29ZM76 40V35H196V40H76ZM196 41H76V45H196V41Z" fill="url(#paint0_linear_16_292)"/>
<path fill-rule="evenodd" clip-rule="evenodd" d="M186.707 12L196 0L183.797 12H186.707ZM183.609 16H179.729L178.712 17H182.835L183.609 16ZM178.962 22H173.627L172.61 23H178.188L178.962 22ZM174.316 28H167.525L166.508 29H173.541L174.316 28ZM169.669 34H161.424L160.407 35H168.895L169.669 34ZM165.023 40H155.322L154.305 41H164.248L165.023 40ZM161.15 45L144.5 66.5L157.791 80.7753C160.267 79.0739 163.263 78.0732 166.494 78.0606C175.051 78.0271 182.015 84.9369 182.049 93.4941C182.056 95.4076 181.716 97.2414 181.089 98.936L188.5 98.5L194 96.5L191 99.5L185 102L179.248 102.442C176.457 106.42 171.844 109.028 166.615 109.049C158.058 109.082 151.094 102.172 151.061 93.6152C151.049 90.5743 151.914 87.7346 153.418 85.3355L153 84.5L137.5 75.5L125.5 64L117 53L76 0L136 59L150.237 45H161.15ZM134 75.5L126.5 69L115 80.5L114.373 80.8133C111.854 79.0664 108.792 78.0477 105.494 78.0606C96.9369 78.094 90.0271 85.0581 90.0606 93.6152C90.094 102.172 97.0581 109.082 105.615 109.049C114.172 109.015 121.082 102.051 121.049 93.4941C121.037 90.4777 120.164 87.666 118.664 85.291C118.772 84.985 118.91 84.6796 119 84.5L120 84L134 75.5ZM116 94C116 99.5229 111.523 104 106 104C100.477 104 96 99.5229 96 94C96 88.4771 100.477 84 106 84C111.523 84 116 88.4771 116 94ZM167 104C172.523 104 177 99.5229 177 94C177 88.4771 172.523 84 167 84C161.477 84 157 88.4771 157 94C157 99.5229 161.477 104 167 104ZM138 65.5C138 66.8807 136.881 68 135.5 68C134.119 68 133 66.8807 133 65.5C133 64.1193 134.119 63 135.5 63C136.881 63 138 64.1193 138 65.5Z" fill="white"/>
<path d="M162.915 178.6H170.475V167.08H163.455V161.68H176.145V178.6H182.625V184H162.915V178.6ZM177.54 155.065C177.54 155.665 177.42 156.235 177.18 156.775C176.97 157.285 176.67 157.735 176.28 158.125C175.89 158.485 175.425 158.785 174.885 159.025C174.375 159.235 173.835 159.34 173.265 159.34C172.665 159.34 172.11 159.235 171.6 159.025C171.09 158.785 170.64 158.485 170.25 158.125C169.86 157.735 169.545 157.285 169.305 156.775C169.095 156.235 168.99 155.665 168.99 155.065C168.99 154.465 169.095 153.91 169.305 153.4C169.545 152.86 169.86 152.41 170.25 152.05C170.64 151.66 171.09 151.36 171.6 151.15C172.11 150.91 172.665 150.79 173.265 150.79C173.835 150.79 174.375 150.91 174.885 151.15C175.425 151.36 175.89 151.66 176.28 152.05C176.67 152.41 176.97 152.86 177.18 153.4C177.42 153.91 177.54 154.465 177.54 155.065ZM206.084 180.76H205.274C205.034 181.27 204.734 181.765 204.374 182.245C204.044 182.695 203.594 183.1 203.024 183.46C202.484 183.82 201.824 184.105 201.044 184.315C200.294 184.525 199.379 184.63 198.299 184.63C196.919 184.63 195.629 184.39 194.429 183.91C193.259 183.4 192.224 182.665 191.324 181.705C190.454 180.715 189.764 179.515 189.254 178.105C188.774 176.695 188.534 175.075 188.534 173.245V172.435C188.534 170.635 188.789 169.03 189.299 167.62C189.839 166.21 190.559 165.025 191.459 164.065C192.389 163.075 193.454 162.325 194.654 161.815C195.884 161.305 197.174 161.05 198.524 161.05C200.324 161.05 201.749 161.395 202.799 162.085C203.849 162.745 204.674 163.69 205.274 164.92H206.084V152.5H211.754V184H206.084V180.76ZM200.144 179.23C201.914 179.23 203.339 178.675 204.419 177.565C205.529 176.425 206.084 174.94 206.084 173.11V172.57C206.084 170.74 205.529 169.27 204.419 168.16C203.339 167.02 201.914 166.45 200.144 166.45C198.374 166.45 196.934 167.005 195.824 168.115C194.744 169.195 194.204 170.68 194.204 172.57V173.11C194.204 175 194.744 176.5 195.824 177.61C196.934 178.69 198.374 179.23 200.144 179.23ZM237.642 178.6V184H218.202V174.55L232.242 167.71V166.9H218.472V161.68H237.102V170.86L223.062 177.79V178.6H237.642ZM250.166 174.685C250.196 175.345 250.346 175.96 250.616 176.53C250.916 177.07 251.306 177.55 251.786 177.97C252.296 178.36 252.866 178.675 253.496 178.915C254.156 179.125 254.846 179.23 255.566 179.23C256.976 179.23 258.056 178.99 258.806 178.51C259.556 178 260.096 177.4 260.426 176.71L265.286 179.41C265.016 179.98 264.641 180.58 264.161 181.21C263.681 181.81 263.051 182.365 262.271 182.875C261.521 183.385 260.591 183.805 259.481 184.135C258.401 184.465 257.126 184.63 255.656 184.63C253.976 184.63 252.446 184.36 251.066 183.82C249.686 183.28 248.486 182.5 247.466 181.48C246.476 180.46 245.696 179.215 245.126 177.745C244.586 176.275 244.316 174.61 244.316 172.75V172.48C244.316 170.77 244.601 169.21 245.171 167.8C245.771 166.39 246.581 165.19 247.601 164.2C248.621 163.21 249.806 162.445 251.156 161.905C252.536 161.335 254.006 161.05 255.566 161.05C257.486 161.05 259.136 161.395 260.516 162.085C261.896 162.745 263.036 163.6 263.936 164.65C264.836 165.67 265.496 166.81 265.916 168.07C266.336 169.3 266.546 170.5 266.546 171.67V174.685H250.166ZM255.521 166.18C254.081 166.18 252.911 166.555 252.011 167.305C251.111 168.025 250.526 168.865 250.256 169.825H260.786C260.606 168.775 260.036 167.905 259.076 167.215C258.146 166.525 256.961 166.18 255.521 166.18Z" fill="white"/>
<path d="M21.28 156.48C22.6667 156.48 23.9333 156.773 25.08 157.36C26.2533 157.92 27.1733 158.72 27.84 159.76C28.5333 160.8 28.88 161.96 28.88 163.24C28.88 166.627 27.3467 168.76 24.28 169.64V169.8C27.7733 170.6 29.52 172.893 29.52 176.68C29.52 178.12 29.16 179.4 28.44 180.52C27.7467 181.613 26.7867 182.467 25.56 183.08C24.3333 183.693 22.9867 184 21.52 184H2.96V156.48H21.28ZM11.8 167.2H17.88C18.4667 167.2 18.9467 167 19.32 166.6C19.72 166.173 19.92 165.653 19.92 165.04V164.64C19.92 164.053 19.72 163.56 19.32 163.16C18.92 162.733 18.44 162.52 17.88 162.52H11.8V167.2ZM11.8 177.6H18.52C19.1067 177.6 19.5867 177.4 19.96 177C20.36 176.573 20.56 176.053 20.56 175.44V175.04C20.56 174.427 20.36 173.92 19.96 173.52C19.5867 173.093 19.1067 172.88 18.52 172.88H11.8V177.6ZM47.7728 156C52.5195 156 56.1861 157.213 58.7728 159.64C61.3595 162.067 62.6528 165.6 62.6528 170.24C62.6528 174.88 61.3595 178.413 58.7728 180.84C56.1861 183.267 52.5195 184.48 47.7728 184.48C43.0261 184.48 39.3595 183.28 36.7728 180.88C34.2128 178.453 32.9328 174.907 32.9328 170.24C32.9328 165.573 34.2128 162.04 36.7728 159.64C39.3595 157.213 43.0261 156 47.7728 156ZM47.7728 162.6C45.8795 162.6 44.4395 163.173 43.4528 164.32C42.4661 165.467 41.9728 167.013 41.9728 168.96V171.52C41.9728 173.467 42.4661 175.013 43.4528 176.16C44.4395 177.307 45.8795 177.88 47.7728 177.88C49.6661 177.88 51.1061 177.307 52.0928 176.16C53.1061 175.013 53.6128 173.467 53.6128 171.52V168.96C53.6128 167.013 53.1061 165.467 52.0928 164.32C51.1061 163.173 49.6661 162.6 47.7728 162.6ZM85.7331 156.48C87.1198 156.48 88.3865 156.773 89.5331 157.36C90.7065 157.92 91.6265 158.72 92.2931 159.76C92.9865 160.8 93.3331 161.96 93.3331 163.24C93.3331 166.627 91.7998 168.76 88.7331 169.64V169.8C92.2265 170.6 93.9731 172.893 93.9731 176.68C93.9731 178.12 93.6131 179.4 92.8931 180.52C92.1998 181.613 91.2398 182.467 90.0131 183.08C88.7865 183.693 87.4398 184 85.9731 184H67.4131V156.48H85.7331ZM76.2531 167.2H82.3331C82.9198 167.2 83.3998 167 83.7731 166.6C84.1731 166.173 84.3731 165.653 84.3731 165.04V164.64C84.3731 164.053 84.1731 163.56 83.7731 163.16C83.3731 162.733 82.8931 162.52 82.3331 162.52H76.2531V167.2ZM76.2531 177.6H82.9731C83.5598 177.6 84.0398 177.4 84.4131 177C84.8131 176.573 85.0131 176.053 85.0131 175.44V175.04C85.0131 174.427 84.8131 173.92 84.4131 173.52C84.0398 173.093 83.5598 172.88 82.9731 172.88H76.2531V177.6ZM124.891 172.92C124.891 176.68 123.705 179.547 121.331 181.52C118.958 183.493 115.585 184.48 111.211 184.48C106.838 184.48 103.451 183.493 101.051 181.52C98.6779 179.547 97.4913 176.68 97.4913 172.92V156.48H106.331V172.8C106.331 174.347 106.745 175.587 107.571 176.52C108.398 177.427 109.598 177.88 111.171 177.88C112.745 177.88 113.945 177.413 114.771 176.48C115.625 175.547 116.051 174.32 116.051 172.8V156.48H124.891V172.92ZM156.932 164.92C156.932 166.6 156.478 168.12 155.572 169.48C154.665 170.84 153.345 171.84 151.612 172.48L157.732 184H147.812L142.932 173.96H139.652V184H130.812V156.48H147.652C149.625 156.48 151.305 156.867 152.692 157.64C154.105 158.387 155.158 159.413 155.852 160.72C156.572 162 156.932 163.4 156.932 164.92ZM147.932 165.28C147.932 164.56 147.692 163.96 147.212 163.48C146.732 163 146.145 162.76 145.452 162.76H139.652V167.84H145.452C146.145 167.84 146.732 167.6 147.212 167.12C147.692 166.613 147.932 166 147.932 165.28Z" fill="white"/>
<path d="M51.105 206L55.17 195.71H57.045L61.125 206H59.58L58.575 203.45H53.565L52.575 206H51.105ZM54.03 202.235H58.095L56.85 199.01C56.82 198.92 56.775 198.795 56.715 198.635C56.655 198.475 56.59 198.3 56.52 198.11C56.45 197.91 56.38 197.71 56.31 197.51C56.24 197.3 56.175 197.11 56.115 196.94H56.025C55.955 197.14 55.875 197.37 55.785 197.63C55.695 197.89 55.605 198.145 55.515 198.395C55.425 198.635 55.35 198.84 55.29 199.01L54.03 202.235ZM62.2596 206V198.11H63.3246L63.4446 199.415H63.5496C63.6296 199.165 63.7396 198.93 63.8796 198.71C64.0196 198.48 64.2096 198.295 64.4496 198.155C64.6896 198.005 64.9846 197.93 65.3346 197.93C65.4846 197.93 65.6196 197.945 65.7396 197.975C65.8696 197.995 65.9646 198.02 66.0246 198.05V199.265H65.5296C65.1896 199.265 64.8946 199.325 64.6446 199.445C64.4046 199.555 64.2046 199.715 64.0446 199.925C63.8846 200.135 63.7646 200.385 63.6846 200.675C63.6146 200.965 63.5796 201.275 63.5796 201.605V206H62.2596ZM69.0851 206.18C68.6751 206.18 68.3551 206.105 68.1251 205.955C67.8951 205.795 67.7301 205.59 67.6301 205.34C67.5301 205.08 67.4801 204.805 67.4801 204.515V199.22H66.4601V198.11H67.5101L67.7501 195.905H68.8001V198.11H70.2851V199.22H68.8001V204.32C68.8001 204.57 68.8451 204.76 68.9351 204.89C69.0251 205.01 69.1951 205.07 69.4451 205.07H70.2851V205.94C70.1851 205.99 70.0651 206.03 69.9251 206.06C69.7851 206.09 69.6401 206.115 69.4901 206.135C69.3501 206.165 69.2151 206.18 69.0851 206.18ZM72.0082 206V199.22H70.8382V198.11H72.0082V196.85C72.0082 196.54 72.0532 196.25 72.1432 195.98C72.2332 195.7 72.4032 195.475 72.6532 195.305C72.9032 195.125 73.2532 195.035 73.7032 195.035C73.8432 195.035 73.9782 195.045 74.1082 195.065C74.2482 195.075 74.3782 195.095 74.4982 195.125C74.6282 195.145 74.7432 195.17 74.8432 195.2V196.145H74.0482C73.7982 196.145 73.6132 196.21 73.4932 196.34C73.3832 196.46 73.3282 196.635 73.3282 196.865V198.11H74.8432V199.22H73.3282V206H72.0082ZM78.3423 206.18C77.5823 206.18 76.9723 205.985 76.5123 205.595C76.0523 205.205 75.8223 204.525 75.8223 203.555V198.11H77.1423V203.375C77.1423 203.705 77.1823 203.975 77.2623 204.185C77.3423 204.395 77.4573 204.56 77.6073 204.68C77.7573 204.8 77.9323 204.885 78.1323 204.935C78.3423 204.985 78.5673 205.01 78.8073 205.01C79.1873 205.01 79.5373 204.92 79.8573 204.74C80.1773 204.56 80.4373 204.3 80.6373 203.96C80.8473 203.61 80.9523 203.205 80.9523 202.745V198.11H82.2723V206H81.2073L81.0873 204.815H80.9823C80.7723 205.135 80.5323 205.395 80.2623 205.595C80.0023 205.795 79.7073 205.94 79.3773 206.03C79.0573 206.13 78.7123 206.18 78.3423 206.18ZM84.3202 206V195.155H85.6402V206H84.3202ZM95.4741 206.18C94.4241 206.18 93.5341 205.99 92.8041 205.61C92.0741 205.22 91.5141 204.635 91.1241 203.855C90.7441 203.065 90.5541 202.065 90.5541 200.855C90.5541 199.065 90.9891 197.73 91.8591 196.85C92.7291 195.97 93.9391 195.53 95.4891 195.53C96.3691 195.53 97.1491 195.675 97.8291 195.965C98.5091 196.245 99.0391 196.675 99.4191 197.255C99.8091 197.825 100.004 198.545 100.004 199.415H98.5641C98.5641 198.815 98.4341 198.32 98.1741 197.93C97.9241 197.54 97.5691 197.25 97.1091 197.06C96.6491 196.86 96.1091 196.76 95.4891 196.76C94.7691 196.76 94.1491 196.9 93.6291 197.18C93.1091 197.46 92.7141 197.895 92.4441 198.485C92.1741 199.065 92.0391 199.815 92.0391 200.735V201.05C92.0391 201.96 92.1741 202.705 92.4441 203.285C92.7141 203.855 93.1041 204.275 93.6141 204.545C94.1341 204.815 94.7591 204.95 95.4891 204.95C96.1291 204.95 96.6791 204.855 97.1391 204.665C97.6091 204.475 97.9691 204.185 98.2191 203.795C98.4791 203.395 98.6091 202.895 98.6091 202.295H100.004C100.004 203.185 99.8041 203.915 99.4041 204.485C99.0141 205.055 98.4791 205.48 97.7991 205.76C97.1191 206.04 96.3441 206.18 95.4741 206.18ZM104.182 206.18C103.422 206.18 102.812 205.985 102.352 205.595C101.892 205.205 101.662 204.525 101.662 203.555V198.11H102.982V203.375C102.982 203.705 103.022 203.975 103.102 204.185C103.182 204.395 103.297 204.56 103.447 204.68C103.597 204.8 103.772 204.885 103.972 204.935C104.182 204.985 104.407 205.01 104.647 205.01C105.027 205.01 105.377 204.92 105.697 204.74C106.017 204.56 106.277 204.3 106.477 203.96C106.687 203.61 106.792 203.205 106.792 202.745V198.11H108.112V206H107.047L106.927 204.815H106.822C106.612 205.135 106.372 205.395 106.102 205.595C105.842 205.795 105.547 205.94 105.217 206.03C104.897 206.13 104.552 206.18 104.182 206.18ZM112.005 206.18C111.595 206.18 111.275 206.105 111.045 205.955C110.815 205.795 110.65 205.59 110.55 205.34C110.45 205.08 110.4 204.805 110.4 204.515V199.22H109.38V198.11H110.43L110.67 195.905H111.72V198.11H113.205V199.22H111.72V204.32C111.72 204.57 111.765 204.76 111.855 204.89C111.945 205.01 112.115 205.07 112.365 205.07H113.205V205.94C113.105 205.99 112.985 206.03 112.845 206.06C112.705 206.09 112.56 206.115 112.41 206.135C112.27 206.165 112.135 206.18 112.005 206.18ZM117.373 206.18C116.833 206.18 116.358 206.125 115.948 206.015C115.538 205.905 115.198 205.745 114.928 205.535C114.658 205.325 114.453 205.075 114.313 204.785C114.173 204.495 114.103 204.165 114.103 203.795C114.103 203.745 114.103 203.7 114.103 203.66C114.103 203.61 114.108 203.57 114.118 203.54H115.423C115.413 203.58 115.408 203.615 115.408 203.645C115.408 203.675 115.408 203.705 115.408 203.735C115.418 204.085 115.508 204.36 115.678 204.56C115.858 204.76 116.103 204.9 116.413 204.98C116.723 205.06 117.068 205.1 117.448 205.1C117.778 205.1 118.083 205.06 118.363 204.98C118.643 204.89 118.863 204.76 119.023 204.59C119.193 204.41 119.278 204.185 119.278 203.915C119.278 203.585 119.168 203.335 118.948 203.165C118.738 202.985 118.458 202.845 118.108 202.745C117.758 202.645 117.393 202.54 117.013 202.43C116.693 202.34 116.373 202.24 116.053 202.13C115.733 202.02 115.443 201.885 115.183 201.725C114.933 201.565 114.728 201.36 114.568 201.11C114.418 200.85 114.343 200.525 114.343 200.135C114.343 199.785 114.413 199.475 114.553 199.205C114.703 198.935 114.913 198.705 115.183 198.515C115.453 198.325 115.778 198.185 116.158 198.095C116.548 197.995 116.978 197.945 117.448 197.945C117.948 197.945 118.383 198 118.753 198.11C119.133 198.22 119.448 198.375 119.698 198.575C119.948 198.775 120.133 199.005 120.253 199.265C120.373 199.515 120.433 199.785 120.433 200.075C120.433 200.135 120.433 200.195 120.433 200.255C120.433 200.305 120.428 200.345 120.418 200.375H119.128V200.21C119.128 200.01 119.073 199.82 118.963 199.64C118.863 199.45 118.683 199.3 118.423 199.19C118.173 199.07 117.823 199.01 117.373 199.01C117.083 199.01 116.833 199.035 116.623 199.085C116.413 199.125 116.238 199.195 116.098 199.295C115.958 199.385 115.853 199.495 115.783 199.625C115.713 199.745 115.678 199.885 115.678 200.045C115.678 200.305 115.763 200.505 115.933 200.645C116.103 200.785 116.328 200.9 116.608 200.99C116.898 201.08 117.208 201.18 117.538 201.29C117.888 201.39 118.243 201.495 118.603 201.605C118.973 201.705 119.308 201.835 119.608 201.995C119.918 202.155 120.163 202.375 120.343 202.655C120.533 202.925 120.628 203.285 120.628 203.735C120.628 204.155 120.548 204.52 120.388 204.83C120.228 205.14 119.998 205.395 119.698 205.595C119.408 205.795 119.063 205.94 118.663 206.03C118.273 206.13 117.843 206.18 117.373 206.18ZM122.41 208.205V207.59C122.6 207.55 122.755 207.455 122.875 207.305C123.005 207.155 123.1 206.965 123.16 206.735C123.22 206.515 123.25 206.27 123.25 206H122.56V204.425H124.015V205.835C124.015 206.415 123.93 206.865 123.76 207.185C123.6 207.515 123.395 207.755 123.145 207.905C122.905 208.055 122.66 208.155 122.41 208.205ZM129.81 206V195.71H133.65C134.73 195.71 135.65 195.89 136.41 196.25C137.17 196.61 137.75 197.17 138.15 197.93C138.56 198.68 138.765 199.655 138.765 200.855C138.765 202.035 138.56 203.005 138.15 203.765C137.75 204.525 137.17 205.09 136.41 205.46C135.65 205.82 134.73 206 133.65 206H129.81ZM131.235 204.77H133.62C134.19 204.77 134.7 204.7 135.15 204.56C135.6 204.41 135.985 204.185 136.305 203.885C136.625 203.585 136.865 203.2 137.025 202.73C137.195 202.25 137.28 201.68 137.28 201.02V200.72C137.28 200.04 137.195 199.465 137.025 198.995C136.865 198.515 136.625 198.125 136.305 197.825C135.995 197.525 135.615 197.305 135.165 197.165C134.715 197.015 134.2 196.94 133.62 196.94H131.235V204.77ZM143.72 206.18C142.94 206.18 142.28 206.035 141.74 205.745C141.21 205.445 140.805 204.99 140.525 204.38C140.255 203.77 140.12 202.995 140.12 202.055C140.12 201.105 140.255 200.33 140.525 199.73C140.805 199.12 141.215 198.67 141.755 198.38C142.295 198.08 142.97 197.93 143.78 197.93C144.52 197.93 145.14 198.075 145.64 198.365C146.14 198.645 146.515 199.07 146.765 199.64C147.025 200.2 147.155 200.905 147.155 201.755V202.385H141.485C141.505 203.015 141.595 203.535 141.755 203.945C141.925 204.345 142.175 204.64 142.505 204.83C142.835 205.01 143.25 205.1 143.75 205.1C144.09 205.1 144.385 205.06 144.635 204.98C144.895 204.89 145.11 204.765 145.28 204.605C145.46 204.445 145.595 204.255 145.685 204.035C145.775 203.815 145.825 203.575 145.835 203.315H147.125C147.115 203.735 147.035 204.125 146.885 204.485C146.735 204.835 146.515 205.135 146.225 205.385C145.935 205.635 145.58 205.83 145.16 205.97C144.74 206.11 144.26 206.18 143.72 206.18ZM141.515 201.395H145.79C145.79 200.955 145.74 200.585 145.64 200.285C145.54 199.985 145.395 199.74 145.205 199.55C145.025 199.36 144.81 199.225 144.56 199.145C144.32 199.055 144.045 199.01 143.735 199.01C143.275 199.01 142.885 199.095 142.565 199.265C142.245 199.435 142 199.695 141.83 200.045C141.66 200.395 141.555 200.845 141.515 201.395ZM149.103 206V199.22H147.933V198.11H149.103V196.85C149.103 196.54 149.148 196.25 149.238 195.98C149.328 195.7 149.498 195.475 149.748 195.305C149.998 195.125 150.348 195.035 150.798 195.035C150.938 195.035 151.073 195.045 151.203 195.065C151.343 195.075 151.473 195.095 151.593 195.125C151.723 195.145 151.838 195.17 151.938 195.2V196.145H151.143C150.893 196.145 150.708 196.21 150.588 196.34C150.478 196.46 150.423 196.635 150.423 196.865V198.11H151.938V199.22H150.423V206H149.103ZM152.988 196.625V195.155H154.308V196.625H152.988ZM152.988 206V198.11H154.308V206H152.988ZM156.376 206V198.11H157.441L157.561 199.295H157.666C157.876 198.975 158.111 198.715 158.371 198.515C158.641 198.315 158.936 198.17 159.256 198.08C159.586 197.98 159.936 197.93 160.306 197.93C160.806 197.93 161.241 198.015 161.611 198.185C161.991 198.355 162.286 198.63 162.496 199.01C162.716 199.39 162.826 199.905 162.826 200.555V206H161.506V200.735C161.506 200.405 161.461 200.135 161.371 199.925C161.291 199.715 161.176 199.55 161.026 199.43C160.886 199.31 160.711 199.225 160.501 199.175C160.301 199.125 160.076 199.1 159.826 199.1C159.456 199.1 159.106 199.19 158.776 199.37C158.446 199.55 158.181 199.81 157.981 200.15C157.791 200.49 157.696 200.895 157.696 201.365V206H156.376ZM167.978 206.18C167.198 206.18 166.538 206.035 165.998 205.745C165.468 205.445 165.063 204.99 164.783 204.38C164.513 203.77 164.378 202.995 164.378 202.055C164.378 201.105 164.513 200.33 164.783 199.73C165.063 199.12 165.473 198.67 166.013 198.38C166.553 198.08 167.228 197.93 168.038 197.93C168.778 197.93 169.398 198.075 169.898 198.365C170.398 198.645 170.773 199.07 171.023 199.64C171.283 200.2 171.413 200.905 171.413 201.755V202.385H165.743C165.763 203.015 165.853 203.535 166.013 203.945C166.183 204.345 166.433 204.64 166.763 204.83C167.093 205.01 167.508 205.1 168.008 205.1C168.348 205.1 168.643 205.06 168.893 204.98C169.153 204.89 169.368 204.765 169.538 204.605C169.718 204.445 169.853 204.255 169.943 204.035C170.033 203.815 170.083 203.575 170.093 203.315H171.383C171.373 203.735 171.293 204.125 171.143 204.485C170.993 204.835 170.773 205.135 170.483 205.385C170.193 205.635 169.838 205.83 169.418 205.97C168.998 206.11 168.518 206.18 167.978 206.18ZM165.773 201.395H170.048C170.048 200.955 169.998 200.585 169.898 200.285C169.798 199.985 169.653 199.74 169.463 199.55C169.283 199.36 169.068 199.225 168.818 199.145C168.578 199.055 168.303 199.01 167.993 199.01C167.533 199.01 167.143 199.095 166.823 199.265C166.503 199.435 166.258 199.695 166.088 200.045C165.918 200.395 165.813 200.845 165.773 201.395ZM175.731 206.18C175.081 206.18 174.521 206.035 174.051 205.745C173.591 205.455 173.231 205.005 172.971 204.395C172.721 203.775 172.596 202.975 172.596 201.995C172.596 201.065 172.726 200.3 172.986 199.7C173.246 199.1 173.606 198.655 174.066 198.365C174.526 198.075 175.061 197.93 175.671 197.93C176.021 197.93 176.346 197.97 176.646 198.05C176.946 198.13 177.211 198.255 177.441 198.425C177.681 198.595 177.891 198.82 178.071 199.1H178.161V195.155H179.481V206H178.416L178.296 204.875H178.191C177.921 205.315 177.571 205.645 177.141 205.865C176.711 206.075 176.241 206.18 175.731 206.18ZM176.046 205.025C176.546 205.025 176.951 204.915 177.261 204.695C177.571 204.475 177.796 204.155 177.936 203.735C178.086 203.315 178.161 202.795 178.161 202.175V201.935C178.161 201.395 178.106 200.94 177.996 200.57C177.886 200.2 177.736 199.905 177.546 199.685C177.356 199.465 177.136 199.31 176.886 199.22C176.636 199.13 176.371 199.085 176.091 199.085C175.601 199.085 175.201 199.185 174.891 199.385C174.581 199.575 174.351 199.88 174.201 200.3C174.051 200.71 173.976 201.245 173.976 201.905V202.22C173.976 202.9 174.056 203.45 174.216 203.87C174.376 204.28 174.606 204.575 174.906 204.755C175.216 204.935 175.596 205.025 176.046 205.025ZM184.946 206V195.71H186.371V204.755H191.486V206H184.946ZM192.733 196.625V195.155H194.053V196.625H192.733ZM192.733 206V198.11H194.053V206H192.733ZM196.102 206V198.11H197.167L197.287 199.295H197.392C197.602 198.975 197.837 198.715 198.097 198.515C198.367 198.315 198.662 198.17 198.982 198.08C199.312 197.98 199.662 197.93 200.032 197.93C200.532 197.93 200.967 198.015 201.337 198.185C201.717 198.355 202.012 198.63 202.222 199.01C202.442 199.39 202.552 199.905 202.552 200.555V206H201.232V200.735C201.232 200.405 201.187 200.135 201.097 199.925C201.017 199.715 200.902 199.55 200.752 199.43C200.612 199.31 200.437 199.225 200.227 199.175C200.027 199.125 199.802 199.1 199.552 199.1C199.182 199.1 198.832 199.19 198.502 199.37C198.172 199.55 197.907 199.81 197.707 200.15C197.517 200.49 197.422 200.895 197.422 201.365V206H196.102ZM207.705 206.18C206.925 206.18 206.265 206.035 205.725 205.745C205.195 205.445 204.79 204.99 204.51 204.38C204.24 203.77 204.105 202.995 204.105 202.055C204.105 201.105 204.24 200.33 204.51 199.73C204.79 199.12 205.2 198.67 205.74 198.38C206.28 198.08 206.955 197.93 207.765 197.93C208.505 197.93 209.125 198.075 209.625 198.365C210.125 198.645 210.5 199.07 210.75 199.64C211.01 200.2 211.14 200.905 211.14 201.755V202.385H205.47C205.49 203.015 205.58 203.535 205.74 203.945C205.91 204.345 206.16 204.64 206.49 204.83C206.82 205.01 207.235 205.1 207.735 205.1C208.075 205.1 208.37 205.06 208.62 204.98C208.88 204.89 209.095 204.765 209.265 204.605C209.445 204.445 209.58 204.255 209.67 204.035C209.76 203.815 209.81 203.575 209.82 203.315H211.11C211.1 203.735 211.02 204.125 210.87 204.485C210.72 204.835 210.5 205.135 210.21 205.385C209.92 205.635 209.565 205.83 209.145 205.97C208.725 206.11 208.245 206.18 207.705 206.18ZM205.5 201.395H209.775C209.775 200.955 209.725 200.585 209.625 200.285C209.525 199.985 209.38 199.74 209.19 199.55C209.01 199.36 208.795 199.225 208.545 199.145C208.305 199.055 208.03 199.01 207.72 199.01C207.26 199.01 206.87 199.095 206.55 199.265C206.23 199.435 205.985 199.695 205.815 200.045C205.645 200.395 205.54 200.845 205.5 201.395ZM215.532 206.18C214.992 206.18 214.517 206.125 214.107 206.015C213.697 205.905 213.357 205.745 213.087 205.535C212.817 205.325 212.612 205.075 212.472 204.785C212.332 204.495 212.262 204.165 212.262 203.795C212.262 203.745 212.262 203.7 212.262 203.66C212.262 203.61 212.267 203.57 212.277 203.54H213.582C213.572 203.58 213.567 203.615 213.567 203.645C213.567 203.675 213.567 203.705 213.567 203.735C213.577 204.085 213.667 204.36 213.837 204.56C214.017 204.76 214.262 204.9 214.572 204.98C214.882 205.06 215.227 205.1 215.607 205.1C215.937 205.1 216.242 205.06 216.522 204.98C216.802 204.89 217.022 204.76 217.182 204.59C217.352 204.41 217.437 204.185 217.437 203.915C217.437 203.585 217.327 203.335 217.107 203.165C216.897 202.985 216.617 202.845 216.267 202.745C215.917 202.645 215.552 202.54 215.172 202.43C214.852 202.34 214.532 202.24 214.212 202.13C213.892 202.02 213.602 201.885 213.342 201.725C213.092 201.565 212.887 201.36 212.727 201.11C212.577 200.85 212.502 200.525 212.502 200.135C212.502 199.785 212.572 199.475 212.712 199.205C212.862 198.935 213.072 198.705 213.342 198.515C213.612 198.325 213.937 198.185 214.317 198.095C214.707 197.995 215.137 197.945 215.607 197.945C216.107 197.945 216.542 198 216.912 198.11C217.292 198.22 217.607 198.375 217.857 198.575C218.107 198.775 218.292 199.005 218.412 199.265C218.532 199.515 218.592 199.785 218.592 200.075C218.592 200.135 218.592 200.195 218.592 200.255C218.592 200.305 218.587 200.345 218.577 200.375H217.287V200.21C217.287 200.01 217.232 199.82 217.122 199.64C217.022 199.45 216.842 199.3 216.582 199.19C216.332 199.07 215.982 199.01 215.532 199.01C215.242 199.01 214.992 199.035 214.782 199.085C214.572 199.125 214.397 199.195 214.257 199.295C214.117 199.385 214.012 199.495 213.942 199.625C213.872 199.745 213.837 199.885 213.837 200.045C213.837 200.305 213.922 200.505 214.092 200.645C214.262 200.785 214.487 200.9 214.767 200.99C215.057 201.08 215.367 201.18 215.697 201.29C216.047 201.39 216.402 201.495 216.762 201.605C217.132 201.705 217.467 201.835 217.767 201.995C218.077 202.155 218.322 202.375 218.502 202.655C218.692 202.925 218.787 203.285 218.787 203.735C218.787 204.155 218.707 204.52 218.547 204.83C218.387 205.14 218.157 205.395 217.857 205.595C217.567 205.795 217.222 205.94 216.822 206.03C216.432 206.13 216.002 206.18 215.532 206.18Z" fill="#AA896A"/>
<path d="M35.185 68.18C34.405 68.18 33.745 68.035 33.205 67.745C32.675 67.445 32.27 66.99 31.99 66.38C31.72 65.77 31.585 64.995 31.585 64.055C31.585 63.105 31.72 62.33 31.99 61.73C32.27 61.12 32.68 60.67 33.22 60.38C33.76 60.08 34.435 59.93 35.245 59.93C35.985 59.93 36.605 60.075 37.105 60.365C37.605 60.645 37.98 61.07 38.23 61.64C38.49 62.2 38.62 62.905 38.62 63.755V64.385H32.95C32.97 65.015 33.06 65.535 33.22 65.945C33.39 66.345 33.64 66.64 33.97 66.83C34.3 67.01 34.715 67.1 35.215 67.1C35.555 67.1 35.85 67.06 36.1 66.98C36.36 66.89 36.575 66.765 36.745 66.605C36.925 66.445 37.06 66.255 37.15 66.035C37.24 65.815 37.29 65.575 37.3 65.315H38.59C38.58 65.735 38.5 66.125 38.35 66.485C38.2 66.835 37.98 67.135 37.69 67.385C37.4 67.635 37.045 67.83 36.625 67.97C36.205 68.11 35.725 68.18 35.185 68.18ZM32.98 63.395H37.255C37.255 62.955 37.205 62.585 37.105 62.285C37.005 61.985 36.86 61.74 36.67 61.55C36.49 61.36 36.275 61.225 36.025 61.145C35.785 61.055 35.51 61.01 35.2 61.01C34.74 61.01 34.35 61.095 34.03 61.265C33.71 61.435 33.465 61.695 33.295 62.045C33.125 62.395 33.02 62.845 32.98 63.395ZM43.0128 68.18C42.4728 68.18 41.9978 68.125 41.5878 68.015C41.1778 67.905 40.8378 67.745 40.5678 67.535C40.2978 67.325 40.0928 67.075 39.9528 66.785C39.8128 66.495 39.7428 66.165 39.7428 65.795C39.7428 65.745 39.7428 65.7 39.7428 65.66C39.7428 65.61 39.7478 65.57 39.7578 65.54H41.0628C41.0528 65.58 41.0478 65.615 41.0478 65.645C41.0478 65.675 41.0478 65.705 41.0478 65.735C41.0578 66.085 41.1478 66.36 41.3178 66.56C41.4978 66.76 41.7428 66.9 42.0528 66.98C42.3628 67.06 42.7078 67.1 43.0878 67.1C43.4178 67.1 43.7228 67.06 44.0028 66.98C44.2828 66.89 44.5028 66.76 44.6628 66.59C44.8328 66.41 44.9178 66.185 44.9178 65.915C44.9178 65.585 44.8078 65.335 44.5878 65.165C44.3778 64.985 44.0978 64.845 43.7478 64.745C43.3978 64.645 43.0328 64.54 42.6528 64.43C42.3328 64.34 42.0128 64.24 41.6928 64.13C41.3728 64.02 41.0828 63.885 40.8228 63.725C40.5728 63.565 40.3678 63.36 40.2078 63.11C40.0578 62.85 39.9828 62.525 39.9828 62.135C39.9828 61.785 40.0528 61.475 40.1928 61.205C40.3428 60.935 40.5528 60.705 40.8228 60.515C41.0928 60.325 41.4178 60.185 41.7978 60.095C42.1878 59.995 42.6178 59.945 43.0878 59.945C43.5878 59.945 44.0228 60 44.3928 60.11C44.7728 60.22 45.0878 60.375 45.3378 60.575C45.5878 60.775 45.7728 61.005 45.8928 61.265C46.0128 61.515 46.0728 61.785 46.0728 62.075C46.0728 62.135 46.0728 62.195 46.0728 62.255C46.0728 62.305 46.0678 62.345 46.0578 62.375H44.7678V62.21C44.7678 62.01 44.7128 61.82 44.6028 61.64C44.5028 61.45 44.3228 61.3 44.0628 61.19C43.8128 61.07 43.4628 61.01 43.0128 61.01C42.7228 61.01 42.4728 61.035 42.2628 61.085C42.0528 61.125 41.8778 61.195 41.7378 61.295C41.5978 61.385 41.4928 61.495 41.4228 61.625C41.3528 61.745 41.3178 61.885 41.3178 62.045C41.3178 62.305 41.4028 62.505 41.5728 62.645C41.7428 62.785 41.9678 62.9 42.2478 62.99C42.5378 63.08 42.8478 63.18 43.1778 63.29C43.5278 63.39 43.8828 63.495 44.2428 63.605C44.6128 63.705 44.9478 63.835 45.2478 63.995C45.5578 64.155 45.8028 64.375 45.9828 64.655C46.1728 64.925 46.2678 65.285 46.2678 65.735C46.2678 66.155 46.1878 66.52 46.0278 66.83C45.8678 67.14 45.6378 67.395 45.3378 67.595C45.0478 67.795 44.7028 67.94 44.3028 68.03C43.9128 68.13 43.4828 68.18 43.0128 68.18ZM49.7443 68.18C49.3343 68.18 49.0143 68.105 48.7843 67.955C48.5543 67.795 48.3893 67.59 48.2893 67.34C48.1893 67.08 48.1393 66.805 48.1393 66.515V61.22H47.1193V60.11H48.1693L48.4093 57.905H49.4593V60.11H50.9443V61.22H49.4593V66.32C49.4593 66.57 49.5043 66.76 49.5943 66.89C49.6843 67.01 49.8543 67.07 50.1043 67.07H50.9443V67.94C50.8443 67.99 50.7243 68.03 50.5843 68.06C50.4443 68.09 50.2993 68.115 50.1493 68.135C50.0093 68.165 49.8743 68.18 49.7443 68.18ZM52.6524 68V66.425H54.1224V68H52.6524ZM206.696 68V67.565C206.696 67.145 206.776 66.76 206.936 66.41C207.106 66.05 207.326 65.725 207.596 65.435C207.876 65.135 208.191 64.85 208.541 64.58C208.891 64.31 209.246 64.045 209.606 63.785C210.096 63.445 210.546 63.105 210.956 62.765C211.376 62.425 211.711 62.06 211.961 61.67C212.211 61.27 212.336 60.825 212.336 60.335C212.336 60.025 212.261 59.745 212.111 59.495C211.971 59.235 211.756 59.03 211.466 58.88C211.176 58.73 210.806 58.655 210.356 58.655C209.826 58.655 209.401 58.745 209.081 58.925C208.761 59.105 208.526 59.345 208.376 59.645C208.236 59.945 208.166 60.275 208.166 60.635V61.25H206.861C206.851 61.2 206.841 61.125 206.831 61.025C206.821 60.915 206.816 60.79 206.816 60.65C206.816 59.91 206.981 59.315 207.311 58.865C207.641 58.405 208.081 58.07 208.631 57.86C209.181 57.64 209.776 57.53 210.416 57.53C210.986 57.53 211.476 57.61 211.886 57.77C212.296 57.92 212.636 58.13 212.906 58.4C213.176 58.67 213.376 58.98 213.506 59.33C213.636 59.67 213.701 60.03 213.701 60.41C213.701 60.88 213.616 61.31 213.446 61.7C213.286 62.09 213.056 62.455 212.756 62.795C212.466 63.125 212.121 63.445 211.721 63.755C211.331 64.065 210.906 64.38 210.446 64.7C210.126 64.91 209.811 65.135 209.501 65.375C209.191 65.605 208.926 65.84 208.706 66.08C208.486 66.32 208.346 66.55 208.286 66.77H213.761V68H206.696ZM218.762 68.18C218.202 68.18 217.702 68.1 217.262 67.94C216.822 67.77 216.447 67.485 216.137 67.085C215.827 66.675 215.592 66.13 215.432 65.45C215.272 64.76 215.192 63.895 215.192 62.855C215.192 61.815 215.272 60.955 215.432 60.275C215.592 59.585 215.827 59.04 216.137 58.64C216.447 58.23 216.822 57.945 217.262 57.785C217.702 57.615 218.202 57.53 218.762 57.53C219.322 57.53 219.817 57.615 220.247 57.785C220.687 57.945 221.062 58.23 221.372 58.64C221.682 59.04 221.917 59.585 222.077 60.275C222.237 60.955 222.317 61.815 222.317 62.855C222.317 63.895 222.237 64.76 222.077 65.45C221.917 66.13 221.682 66.675 221.372 67.085C221.062 67.485 220.687 67.77 220.247 67.94C219.817 68.1 219.322 68.18 218.762 68.18ZM218.762 67.07C219.332 67.07 219.772 66.925 220.082 66.635C220.402 66.345 220.622 65.915 220.742 65.345C220.872 64.775 220.937 64.065 220.937 63.215V62.525C220.937 61.665 220.872 60.95 220.742 60.38C220.622 59.8 220.402 59.365 220.082 59.075C219.772 58.785 219.332 58.64 218.762 58.64C218.192 58.64 217.747 58.785 217.427 59.075C217.107 59.365 216.882 59.795 216.752 60.365C216.632 60.935 216.572 61.65 216.572 62.51V63.185C216.572 64.035 216.632 64.75 216.752 65.33C216.882 65.91 217.107 66.345 217.427 66.635C217.747 66.925 218.192 67.07 218.762 67.07ZM223.806 68V67.565C223.806 67.145 223.886 66.76 224.046 66.41C224.216 66.05 224.436 65.725 224.706 65.435C224.986 65.135 225.301 64.85 225.651 64.58C226.001 64.31 226.356 64.045 226.716 63.785C227.206 63.445 227.656 63.105 228.066 62.765C228.486 62.425 228.821 62.06 229.071 61.67C229.321 61.27 229.446 60.825 229.446 60.335C229.446 60.025 229.371 59.745 229.221 59.495C229.081 59.235 228.866 59.03 228.576 58.88C228.286 58.73 227.916 58.655 227.466 58.655C226.936 58.655 226.511 58.745 226.191 58.925C225.871 59.105 225.636 59.345 225.486 59.645C225.346 59.945 225.276 60.275 225.276 60.635V61.25H223.971C223.961 61.2 223.951 61.125 223.941 61.025C223.931 60.915 223.926 60.79 223.926 60.65C223.926 59.91 224.091 59.315 224.421 58.865C224.751 58.405 225.191 58.07 225.741 57.86C226.291 57.64 226.886 57.53 227.526 57.53C228.096 57.53 228.586 57.61 228.996 57.77C229.406 57.92 229.746 58.13 230.016 58.4C230.286 58.67 230.486 58.98 230.616 59.33C230.746 59.67 230.811 60.03 230.811 60.41C230.811 60.88 230.726 61.31 230.556 61.7C230.396 62.09 230.166 62.455 229.866 62.795C229.576 63.125 229.231 63.445 228.831 63.755C228.441 64.065 228.016 64.38 227.556 64.7C227.236 64.91 226.921 65.135 226.611 65.375C226.301 65.605 226.036 65.84 225.816 66.08C225.596 66.32 225.456 66.55 225.396 66.77H230.871V68H223.806ZM236.771 68V65.48H231.986V64.37C232.406 63.65 232.786 62.925 233.126 62.195C233.476 61.465 233.786 60.715 234.056 59.945C234.336 59.175 234.566 58.37 234.746 57.53H236.156C236.026 58.08 235.866 58.645 235.676 59.225C235.486 59.795 235.276 60.35 235.046 60.89C234.816 61.43 234.586 61.935 234.356 62.405C234.136 62.875 233.926 63.28 233.726 63.62C233.536 63.96 233.381 64.21 233.261 64.37H236.771V61.1C236.831 60.94 236.891 60.775 236.951 60.605C237.021 60.425 237.086 60.245 237.146 60.065C237.206 59.875 237.261 59.7 237.311 59.54C237.361 59.37 237.401 59.21 237.431 59.06H238.091V64.37H239.456V65.48H238.091V68H236.771Z" fill="white"/>
<defs>
<linearGradient id="paint0_linear_16_292" x1="76" y1="28.5" x2="196" y2="28.5" gradientUnits="userSpaceOnUse">
<stop/>
<stop offset="0.25" stop-color="#AA896A"/>
</linearGradient>
</defs>
</svg>
